<svg width="272" height="85" viewBox="0 0 272 85" fill="none" xmlns="http://www.w3.org/2000/svg">
<path d="M62.3385 36.2695C61.7114 36.0583 60.9017 35.7753 60.2545 35.3472C60.026 35.1448 59.8089 34.9607 59.6037 34.7896C58.0765 33.5167 57.2005 32.9642 57.0605 30.9341C56.9051 28.6806 53.9849 26.1514 51.8398 26.2871C48.4954 26.4988 45.1378 26.907 41.8 27.205C37.8881 27.5543 34.4515 27.1426 33.4814 31.6225C31.5754 40.4236 35.607 51.8368 40.71 58.816C46.2418 66.3816 55.1361 68.4542 64.2318 68.4542C69.2903 68.4542 72.899 63.8186 77.7711 62.7745C93.7705 59.3461 110.19 60.3141 126.421 61.5124C135.247 62.1639 144.246 63.7537 152.783 66.0733C159.052 67.7769 165.031 70.3311 171.256 72.1545C176.455 73.6777 182.108 73.76 187.463 73.3306C198.14 72.4745 209.368 70.6081 218.787 65.2128C226.202 60.9652 232.439 53.5773 236.113 45.879C237.678 42.5988 238.604 36.2518 237.891 32.5978C236.618 26.0722 227.004 26.6887 222.057 26.6887C211.611 26.6887 201.983 23.0718 193.056 17.7677C189.903 15.8941 187.202 14.4778 183.619 13.4362C177.219 11.5757 173.596 10.784 166.551 12.088C154.573 14.3052 129.335 21.126 119.709 23.6194C102.416 28.0988 83.5692 34.5849 65.6086 36.9006C64.9721 36.9827 62.9726 36.483 62.3385 36.2695Z" fill="#EAFEFF"/>
<g clip-path="url(#clip0_230_13678)">
<path d="M93.2205 31.9206C96.638 34.7 101.657 34.1888 104.43 30.7789C107.203 27.369 106.681 22.3515 103.263 19.5721C99.8455 16.7927 94.8268 17.3038 92.0537 20.7138C89.2805 24.1237 89.8029 29.1411 93.2205 31.9206Z" fill="#128999" stroke="#252B1E" stroke-miterlimit="10" stroke-linecap="round"/>
<path d="M114.141 83.8353C117.744 83.8353 120.664 80.9216 120.664 77.3273C120.664 73.7331 117.744 70.8193 114.141 70.8193C110.539 70.8193 107.619 73.7331 107.619 77.3273C107.619 80.9216 110.539 83.8353 114.141 83.8353Z" fill="#FFC700" stroke="#252B1E" stroke-miterlimit="10" stroke-linecap="round"/>
<path d="M106.648 43.3454C106.723 47.7441 103.692 79.3052 99.2917 79.3705C94.8911 79.4358 90.7868 47.9805 90.7118 43.5818C90.694 42.5359 90.8825 41.4972 91.2664 40.5249C91.6504 39.5527 92.2223 38.666 92.9496 37.9154C94.4184 36.3996 96.4308 35.5305 98.544 35.4991C100.657 35.4678 102.698 36.2768 104.218 37.7483C105.738 39.2198 106.612 41.2331 106.648 43.3454Z" fill="#128999" stroke="#252B1E" stroke-miterlimit="10" stroke-linecap="round"/>
<path d="M95.4771 46.452C97.3069 47.94 99.9937 47.6664 101.478 45.8408C102.963 44.0151 102.683 41.3289 100.854 39.8408C99.024 38.3528 96.3372 38.6264 94.8525 40.4521C93.3677 42.2777 93.6474 44.9639 95.4771 46.452Z" fill="#EAFEFF" stroke="#252B1E" stroke-miterlimit="10" stroke-linecap="round"/>
<path d="M146.81 33.7457C151.215 33.7457 154.786 30.1826 154.786 25.7874C154.786 21.3921 151.215 17.8291 146.81 17.8291C142.405 17.8291 138.833 21.3921 138.833 25.7874C138.833 30.1826 142.405 33.7457 146.81 33.7457Z" fill="#64CDC7" stroke="#252B1E" stroke-miterlimit="10" stroke-linecap="round"/>
<path d="M155.52 43.2079C155.67 47.6006 153.174 79.1871 148.771 79.3365C144.369 79.4859 139.727 48.1417 139.577 43.749C139.506 41.6401 140.278 39.5893 141.722 38.0477C143.166 36.5061 145.164 35.5998 147.278 35.528C149.391 35.4563 151.447 36.225 152.993 37.6652C154.538 39.1054 155.448 41.0991 155.52 43.2079V43.2079Z" fill="#64CDC7" stroke="#252B1E" stroke-miterlimit="10" stroke-linecap="round"/>
<path d="M147.029 47.4321C149.387 47.4321 151.299 45.5245 151.299 43.1714C151.299 40.8182 149.387 38.9106 147.029 38.9106C144.67 38.9106 142.759 40.8182 142.759 43.1714C142.759 45.5245 144.67 47.4321 147.029 47.4321Z" fill="#EAFEFF" stroke="#252B1E" stroke-miterlimit="10" stroke-linecap="round"/>
<path d="M82.3027 20.3532C91.7934 18.8356 98.5398 14.9657 98.5398 10.4313C98.5398 6.31529 92.981 2.74685 84.8568 0.988281" stroke="#395559" stroke-miterlimit="10" stroke-linecap="round"/>
<path d="M57.3604 18.6074C61.7122 20.1263 67.2969 21.0391 73.3871 21.0391C74.1415 21.0391 74.8877 21.0253 75.6257 20.9977" stroke="#395559" stroke-miterlimit="10" stroke-linecap="round"/>
<path d="M86.574 27.8344C86.574 27.8344 80.6062 26.8068 80.3807 21.9746" stroke="#395559" stroke-miterlimit="10" stroke-linecap="round"/>
<path d="M155.527 31.1709C155.527 31.1709 163.12 37.3985 169.362 31.1709" stroke="#395559" stroke-miterlimit="10" stroke-linecap="round"/>
<path d="M209 29C205.539 33.6571 196.087 36.999 184.969 36.999C180.592 37.0274 176.231 36.4682 172 35.3357" stroke="#395559" stroke-miterlimit="10" stroke-linecap="round"/>
<path d="M162.274 31C160.19 29.2984 159 27.3289 159 25.23C159 20.8216 164.251 16.9843 172 15" stroke="#395559" stroke-miterlimit="10" stroke-linecap="round"/>
<path d="M61.41 13V7.7H62.33V9.14L62.24 8.78C62.3867 8.41333 62.6333 8.13333 62.98 7.94C63.3267 7.74667 63.7533 7.65 64.26 7.65V8.58C64.22 8.57333 64.18 8.57 64.14 8.57C64.1067 8.57 64.0733 8.57 64.04 8.57C63.5267 8.57 63.12 8.72333 62.82 9.03C62.52 9.33667 62.37 9.78 62.37 10.36V13H61.41ZM67.5844 13.06C67.071 13.06 66.611 12.9467 66.2044 12.72C65.8044 12.4933 65.4877 12.1767 65.2544 11.77C65.021 11.3633 64.9044 10.89 64.9044 10.35C64.9044 9.81 65.021 9.34 65.2544 8.94C65.4877 8.53333 65.8044 8.21667 66.2044 7.99C66.611 7.76333 67.071 7.65 67.5844 7.65C68.031 7.65 68.4344 7.75 68.7944 7.95C69.1544 8.15 69.441 8.45 69.6544 8.85C69.8744 9.25 69.9844 9.75 69.9844 10.35C69.9844 10.95 69.8777 11.45 69.6644 11.85C69.4577 12.25 69.1744 12.5533 68.8144 12.76C68.4544 12.96 68.0444 13.06 67.5844 13.06ZM67.6644 12.22C67.9977 12.22 68.2977 12.1433 68.5644 11.99C68.8377 11.8367 69.051 11.62 69.2044 11.34C69.3644 11.0533 69.4444 10.7233 69.4444 10.35C69.4444 9.97 69.3644 9.64333 69.2044 9.37C69.051 9.09 68.8377 8.87333 68.5644 8.72C68.2977 8.56667 67.9977 8.49 67.6644 8.49C67.3244 8.49 67.021 8.56667 66.7544 8.72C66.4877 8.87333 66.2744 9.09 66.1144 9.37C65.9544 9.64333 65.8744 9.97 65.8744 10.35C65.8744 10.7233 65.9544 11.0533 66.1144 11.34C66.2744 11.62 66.4877 11.8367 66.7544 11.99C67.021 12.1433 67.3244 12.22 67.6644 12.22ZM69.4744 13V11.57L69.5344 10.34L69.4344 9.11V5.58H70.3944V13H69.4744ZM72.4408 15C72.1874 15 71.9408 14.9567 71.7008 14.87C71.4608 14.79 71.2541 14.67 71.0808 14.51L71.4908 13.79C71.6241 13.9167 71.7708 14.0133 71.9308 14.08C72.0908 14.1467 72.2608 14.18 72.4408 14.18C72.6741 14.18 72.8674 14.12 73.0208 14C73.1741 13.88 73.3174 13.6667 73.4508 13.36L73.7808 12.63L73.8808 12.51L75.9608 7.7H76.9008L74.3308 13.53C74.1774 13.9033 74.0041 14.1967 73.8108 14.41C73.6241 14.6233 73.4174 14.7733 73.1908 14.86C72.9641 14.9533 72.7141 15 72.4408 15ZM73.7008 13.17L71.2808 7.7H72.2808L74.3408 12.42L73.7008 13.17ZM79.4988 10.79C79.4988 10.53 79.5421 10.3033 79.6288 10.11C79.7154 9.91667 79.8221 9.74333 79.9488 9.59C80.0821 9.43667 80.2254 9.29667 80.3788 9.17C80.5321 9.03667 80.6754 8.90667 80.8088 8.78C80.9421 8.64667 81.0488 8.50667 81.1288 8.36C81.2154 8.21333 81.2588 8.04333 81.2588 7.85C81.2588 7.53 81.1321 7.27 80.8788 7.07C80.6254 6.87 80.2754 6.77 79.8288 6.77C79.4288 6.77 79.0821 6.83667 78.7888 6.97C78.4954 7.10333 78.2454 7.3 78.0388 7.56L77.3088 7.04C77.5888 6.68667 77.9454 6.41333 78.3788 6.22C78.8121 6.02 79.3188 5.92 79.8988 5.92C80.3788 5.92 80.7954 5.99333 81.1488 6.14C81.5021 6.28 81.7754 6.48333 81.9688 6.75C82.1688 7.01 82.2687 7.32667 82.2687 7.7C82.2687 7.98 82.2254 8.22 82.1388 8.42C82.0521 8.62 81.9421 8.79667 81.8088 8.95C81.6754 9.10333 81.5321 9.24667 81.3788 9.38C81.2321 9.51333 81.0921 9.64667 80.9588 9.78C80.8254 9.91333 80.7154 10.06 80.6288 10.22C80.5421 10.38 80.4988 10.57 80.4988 10.79H79.4988ZM80.0088 13.06C79.8221 13.06 79.6654 12.9967 79.5388 12.87C79.4188 12.7433 79.3588 12.5933 79.3588 12.42C79.3588 12.2333 79.4188 12.08 79.5388 11.96C79.6654 11.84 79.8221 11.78 80.0088 11.78C80.1954 11.78 80.3488 11.84 80.4688 11.96C80.5888 12.08 80.6488 12.2333 80.6488 12.42C80.6488 12.5933 80.5888 12.7433 80.4688 12.87C80.3488 12.9967 80.1954 13.06 80.0088 13.06Z" fill="#1E3636"/>
<path d="M172.64 25.06C172.187 25.06 171.787 24.9767 171.44 24.81C171.1 24.6433 170.833 24.39 170.64 24.05C170.453 23.7033 170.36 23.27 170.36 22.75V19.7H171.32V22.64C171.32 23.16 171.443 23.55 171.69 23.81C171.943 24.07 172.297 24.2 172.75 24.2C173.083 24.2 173.373 24.1333 173.62 24C173.867 23.86 174.057 23.66 174.19 23.4C174.323 23.1333 174.39 22.8133 174.39 22.44V19.7H175.35V25H174.44V23.57L174.59 23.95C174.417 24.3033 174.157 24.5767 173.81 24.77C173.463 24.9633 173.073 25.06 172.64 25.06ZM183.808 19.65C184.234 19.65 184.611 19.7333 184.938 19.9C185.264 20.0667 185.518 20.32 185.698 20.66C185.884 21 185.978 21.43 185.978 21.95V25H185.018V22.06C185.018 21.5467 184.898 21.16 184.658 20.9C184.418 20.64 184.081 20.51 183.648 20.51C183.328 20.51 183.048 20.5767 182.808 20.71C182.568 20.8433 182.381 21.04 182.248 21.3C182.121 21.56 182.058 21.8833 182.058 22.27V25H181.098V22.06C181.098 21.5467 180.978 21.16 180.738 20.9C180.504 20.64 180.168 20.51 179.728 20.51C179.414 20.51 179.138 20.5767 178.898 20.71C178.658 20.8433 178.471 21.04 178.338 21.3C178.204 21.56 178.138 21.8833 178.138 22.27V25H177.178V19.7H178.098V21.11L177.948 20.75C178.114 20.4033 178.371 20.1333 178.718 19.94C179.064 19.7467 179.468 19.65 179.928 19.65C180.434 19.65 180.871 19.7767 181.238 20.03C181.604 20.2767 181.844 20.6533 181.958 21.16L181.568 21C181.728 20.5933 182.008 20.2667 182.408 20.02C182.808 19.7733 183.274 19.65 183.808 19.65ZM187.974 25.06C187.787 25.06 187.627 24.9967 187.494 24.87C187.361 24.7367 187.294 24.57 187.294 24.37C187.294 24.17 187.361 24.0067 187.494 23.88C187.627 23.7533 187.787 23.69 187.974 23.69C188.154 23.69 188.307 23.7533 188.434 23.88C188.567 24.0067 188.634 24.17 188.634 24.37C188.634 24.57 188.567 24.7367 188.434 24.87C188.307 24.9967 188.154 25.06 187.974 25.06ZM190.24 25.06C190.053 25.06 189.893 24.9967 189.76 24.87C189.626 24.7367 189.56 24.57 189.56 24.37C189.56 24.17 189.626 24.0067 189.76 23.88C189.893 23.7533 190.053 23.69 190.24 23.69C190.42 23.69 190.573 23.7533 190.7 23.88C190.833 24.0067 190.9 24.17 190.9 24.37C190.9 24.57 190.833 24.7367 190.7 24.87C190.573 24.9967 190.42 25.06 190.24 25.06ZM192.505 25.06C192.319 25.06 192.159 24.9967 192.025 24.87C191.892 24.7367 191.825 24.57 191.825 24.37C191.825 24.17 191.892 24.0067 192.025 23.88C192.159 23.7533 192.319 23.69 192.505 23.69C192.685 23.69 192.839 23.7533 192.965 23.88C193.099 24.0067 193.165 24.17 193.165 24.37C193.165 24.57 193.099 24.7367 192.965 24.87C192.839 24.9967 192.685 25.06 192.505 25.06ZM200.056 19.65C200.49 19.65 200.87 19.7333 201.196 19.9C201.53 20.0667 201.79 20.32 201.976 20.66C202.163 21 202.256 21.43 202.256 21.95V25H201.296V22.06C201.296 21.5467 201.17 21.16 200.916 20.9C200.67 20.64 200.32 20.51 199.866 20.51C199.526 20.51 199.23 20.5767 198.976 20.71C198.723 20.8433 198.526 21.04 198.386 21.3C198.253 21.56 198.186 21.8833 198.186 22.27V25H197.226V19.7H198.146V21.13L197.996 20.75C198.17 20.4033 198.436 20.1333 198.796 19.94C199.156 19.7467 199.576 19.65 200.056 19.65ZM206.303 25.06C205.77 25.06 205.296 24.9433 204.883 24.71C204.47 24.4767 204.143 24.1567 203.903 23.75C203.663 23.3367 203.543 22.87 203.543 22.35C203.543 21.8233 203.663 21.3567 203.903 20.95C204.143 20.5433 204.47 20.2267 204.883 20C205.296 19.7667 205.77 19.65 206.303 19.65C206.83 19.65 207.3 19.7667 207.713 20C208.133 20.2267 208.46 20.5433 208.693 20.95C208.933 21.35 209.053 21.8167 209.053 22.35C209.053 22.8767 208.933 23.3433 208.693 23.75C208.46 24.1567 208.133 24.4767 207.713 24.71C207.3 24.9433 206.83 25.06 206.303 25.06ZM206.303 24.22C206.643 24.22 206.946 24.1433 207.213 23.99C207.486 23.8367 207.7 23.62 207.853 23.34C208.006 23.0533 208.083 22.7233 208.083 22.35C208.083 21.97 208.006 21.6433 207.853 21.37C207.7 21.09 207.486 20.8733 207.213 20.72C206.946 20.5667 206.643 20.49 206.303 20.49C205.963 20.49 205.66 20.5667 205.393 20.72C205.126 20.8733 204.913 21.09 204.753 21.37C204.593 21.6433 204.513 21.97 204.513 22.35C204.513 22.7233 204.593 23.0533 204.753 23.34C204.913 23.62 205.126 23.8367 205.393 23.99C205.66 24.1433 205.963 24.22 206.303 24.22ZM211.282 22.79C211.282 22.53 211.325 22.3033 211.412 22.11C211.499 21.9167 211.605 21.7433 211.732 21.59C211.865 21.4367 212.009 21.2967 212.162 21.17C212.315 21.0367 212.459 20.9067 212.592 20.78C212.725 20.6467 212.832 20.5067 212.912 20.36C212.999 20.2133 213.042 20.0433 213.042 19.85C213.042 19.53 212.915 19.27 212.662 19.07C212.409 18.87 212.059 18.77 211.612 18.77C211.212 18.77 210.865 18.8367 210.572 18.97C210.279 19.1033 210.029 19.3 209.822 19.56L209.092 19.04C209.372 18.6867 209.729 18.4133 210.162 18.22C210.595 18.02 211.102 17.92 211.682 17.92C212.162 17.92 212.579 17.9933 212.932 18.14C213.285 18.28 213.559 18.4833 213.752 18.75C213.952 19.01 214.052 19.3267 214.052 19.7C214.052 19.98 214.009 20.22 213.922 20.42C213.835 20.62 213.725 20.7967 213.592 20.95C213.459 21.1033 213.315 21.2467 213.162 21.38C213.015 21.5133 212.875 21.6467 212.742 21.78C212.609 21.9133 212.499 22.06 212.412 22.22C212.325 22.38 212.282 22.57 212.282 22.79H211.282ZM211.792 25.06C211.605 25.06 211.449 24.9967 211.322 24.87C211.202 24.7433 211.142 24.5933 211.142 24.42C211.142 24.2333 211.202 24.08 211.322 23.96C211.449 23.84 211.605 23.78 211.792 23.78C211.979 23.78 212.132 23.84 212.252 23.96C212.372 24.08 212.432 24.2333 212.432 24.42C212.432 24.5933 212.372 24.7433 212.252 24.87C212.132 24.9967 211.979 25.06 211.792 25.06Z" fill="#1E3636"/>
</g>
<defs>
<clipPath id="clip0_230_13678">
<rect width="159" height="85" fill="white" transform="translate(56.5)"/>
</clipPath>
</defs>
</svg>
