<svg width="272" height="88" viewBox="0 0 272 88" fill="none" xmlns="http://www.w3.org/2000/svg">
<g clip-path="url(#clip0_230_13967)">
<path d="M101.787 10.1504C87.8939 4.55492 72.8761 -1.99221 58.4796 2.13963C53.9964 3.42636 49.8694 5.69819 45.7858 7.95185L26.2458 18.7357C21.8999 21.1341 17.2371 23.8824 15.4301 28.5055C13.6231 33.1287 16.8877 39.7449 21.804 39.0606C16.382 43.6636 10.5844 48.9287 9.6603 55.9808C9.28475 58.7631 9.77267 61.5937 11.0581 64.0897C14.7275 71.0662 23.5989 73.1069 31.4014 74.2282C48.32 76.6594 65.3426 78.2855 82.3576 79.9107L145.329 85.9254C155.565 86.903 165.845 87.8818 176.114 87.3504C194.601 86.3935 212.448 80.5876 230.042 74.8305C238.839 71.9519 247.948 68.8923 254.668 62.5269C261.388 56.1615 264.973 45.4753 260.424 37.4137C256.185 29.9005 246.666 27.1812 238.046 26.8399C229.426 26.4986 220.583 27.8034 212.299 25.3958C204.015 22.9882 196.327 15.058 198.178 6.63221C197.928 8.12752 155.669 8.04798 151.59 8.37178C141.516 9.17132 136.341 17.5086 125.653 16.6309C117.411 15.954 109.41 13.2205 101.787 10.1504Z" fill="#EAFEFF"/>
<path d="M114.447 66.0159C122.007 66.0159 128.136 59.8873 128.136 52.3273C128.136 44.7673 122.007 38.6387 114.447 38.6387C106.887 38.6387 100.759 44.7673 100.759 52.3273C100.759 59.8873 106.887 66.0159 114.447 66.0159Z" fill="#FFC700" stroke="#1E3636" stroke-miterlimit="10"/>
<path d="M173.11 40.8087C174.689 41.4863 176.381 42.4212 176.888 44.062C177.497 46.0312 175.995 48.1631 174.09 48.9501C172.117 49.5856 170.008 49.6674 167.992 49.1866C165.983 48.7049 163.901 48.6064 161.855 48.8962C165.903 49.0902 169.89 49.9615 173.65 51.4739C175.826 52.3504 178.211 53.8685 178.303 56.2128C178.286 56.9529 178.084 57.6769 177.714 58.3184C177.345 58.9599 176.82 59.4983 176.188 59.8843C174.916 60.642 173.499 61.1248 172.029 61.3016C166.037 62.3167 159.889 61.8658 154.11 59.9873C155.675 61.0057 157.036 62.3069 158.123 63.8243C158.656 64.5911 158.969 65.4897 159.027 66.4219C159.084 67.3541 158.885 68.2843 158.451 69.1112C157.996 69.746 157.399 70.2653 156.707 70.6272C156.015 70.9892 155.248 71.1837 154.467 71.1951C152.907 71.2037 151.357 70.9316 149.892 70.3917C145.287 68.9452 140.835 67.0496 136.601 64.7323C137.685 65.7254 136.924 67.7331 135.557 68.2733C134.847 68.4699 134.104 68.5135 133.377 68.4012C132.649 68.2888 131.954 68.0231 131.337 67.6216C124.788 64.1543 118.953 51.7174 126.502 46.4971C134.941 40.5138 145.014 37.2683 155.358 37.2002C161.457 37.2017 167.494 38.4289 173.11 40.8087Z" fill="#64CDC7" stroke="#1E3636" stroke-miterlimit="10"/>
<path d="M53.1735 31.6925C51.5954 32.3701 49.9033 33.305 49.3959 34.9458C48.7868 36.915 50.2888 39.0469 52.1939 39.8339C54.1665 40.4694 56.2758 40.5512 58.2918 40.0704C60.3009 39.5887 62.3828 39.4902 64.4284 39.78C60.3804 39.974 56.3937 40.8453 52.6338 42.3577C50.4575 43.2342 48.0727 44.7523 47.9805 47.0966C47.9974 47.8367 48.1999 48.5607 48.5694 49.2022C48.939 49.8437 49.4637 50.3821 50.0954 50.7681C51.3678 51.5259 52.7849 52.0087 54.2553 52.1854C60.2466 53.2005 66.3947 52.7496 72.1738 50.8711C70.6091 51.8895 69.2481 53.1907 68.1605 54.7081C67.6274 55.475 67.3149 56.3735 67.2571 57.3057C67.1994 58.2379 67.3986 59.1681 67.833 59.995C68.2876 60.6298 68.8849 61.1491 69.5767 61.511C70.2686 61.873 71.0357 62.0675 71.8164 62.0789C73.3773 62.0875 74.927 61.8154 76.3916 61.2755C80.9967 59.829 85.4485 57.9334 89.6828 55.6161C88.5993 56.6093 89.3603 58.6169 90.7272 59.1571C91.4366 59.3538 92.1797 59.3974 92.9072 59.285C93.6347 59.1727 94.33 58.9069 94.947 58.5054C101.496 55.0381 107.331 42.6013 99.7814 37.3809C91.3433 31.3976 81.2702 28.1521 70.9263 28.084C64.8267 28.0855 58.7896 29.3127 53.1735 31.6925Z" fill="#64CDC7" stroke="#1E3636" stroke-miterlimit="10"/>
<path d="M43.4194 29.7629C49.8317 25.537 57.408 23.429 65.0813 23.7359" stroke="#1E3636" stroke-miterlimit="10" stroke-linecap="round"/>
<path d="M44.884 44.354C42.8746 45.5987 42.3866 48.5378 43.4456 50.651C44.0365 51.6781 44.8453 52.5632 45.8152 53.244C46.7851 53.9247 47.8924 54.3846 49.0592 54.5912C51.3932 54.9869 53.773 55.0352 56.1211 54.7345C54.993 55.0165 53.9842 55.6508 53.2411 56.5453C52.4981 57.4397 52.0595 58.5477 51.9891 59.7084C51.9523 60.87 52.171 62.0255 52.6296 63.0933C53.0882 64.1612 53.7756 65.1153 54.6434 65.8884C56.394 67.4228 58.4797 68.5259 60.7334 69.1091C67.4475 71.0585 74.6544 70.3484 80.8591 67.1262" stroke="#1E3636" stroke-miterlimit="10" stroke-linecap="round"/>
<path d="M144.762 72.3667C147.611 73.655 150.73 74.2348 153.852 74.0564C156.975 73.878 160.007 72.9468 162.691 71.3423" stroke="#1E3636" stroke-miterlimit="10" stroke-linecap="round"/>
<path d="M139.319 33.3014C146.357 31.5838 153.589 30.7864 160.832 30.9294C165.086 30.8928 169.317 31.5485 173.36 32.8706C177.426 34.2158 180.923 36.8867 183.29 40.4555" stroke="#1E3636" stroke-miterlimit="10" stroke-linecap="round"/>
<path d="M178.201 31.0625C180.367 32.2663 182.192 33.9996 183.505 36.1004C184.819 38.2013 185.578 40.6009 185.712 43.0749" stroke="#1E3636" stroke-miterlimit="10" stroke-linecap="round"/>
<path d="M56 46.3394C56.5 48.506 60.7 51.8394 73.5 47.8394" stroke="#128999" stroke-linecap="round"/>
<path d="M140 62.3394C148 66.6727 161.9 72.7394 153.5 62.3394" stroke="#128999" stroke-linecap="round"/>
<path d="M129 51.8393C131.167 48.006 141.9 40.8393 167.5 42.8393" stroke="#128999" stroke-linecap="round"/>
</g>
<defs>
<clipPath id="clip0_230_13967">
<rect width="253.917" height="87.6608" fill="white" transform="translate(9.04126 0.339355)"/>
</clipPath>
</defs>
</svg>
