<svg width="13" height="27" viewBox="0 0 13 27" fill="none" xmlns="http://www.w3.org/2000/svg">
<g clip-path="url(#clip0_331_966)">
<path d="M9.51476 3.33772C9.51452 3.99761 9.3186 4.64262 8.95178 5.19116C8.58495 5.73971 8.06371 6.16716 7.45395 6.41946C6.8442 6.67177 6.17332 6.73759 5.52615 6.60861C4.87898 6.47963 4.2846 6.16164 3.81816 5.69485C3.35171 5.22807 3.03417 4.63344 2.90567 3.98618C2.77717 3.33892 2.84349 2.66809 3.09625 2.05852C3.349 1.44895 3.77684 0.928025 4.32566 0.561611C4.87448 0.195197 5.51962 -0.000244585 6.17952 2.29714e-07C6.61771 2.5386e-05 7.0516 0.0863932 7.4564 0.254169C7.8612 0.421944 8.22898 0.667839 8.53871 0.977802C8.84844 1.28777 9.09406 1.65572 9.26154 2.06065C9.42901 2.46557 9.51506 2.89953 9.51476 3.33772Z" fill="#1E3636"/>
<path d="M12.2378 9.69366V13.9747C11.2743 13.7938 10.3011 13.6691 9.32315 13.6014C8.86269 18.1537 7.62815 26.7332 6.17709 26.7332C4.7285 26.7332 3.49645 18.1587 3.0335 13.6039C2.05546 13.6695 1.0822 13.7933 0.118896 13.9747V9.69366C1.17351 9.5247 2.23601 9.40923 3.3023 9.34771C3.59614 8.84544 4.01634 8.42884 4.52112 8.13934C5.02589 7.84984 5.59766 7.69751 6.17956 7.69751C6.76147 7.69751 7.33323 7.84984 7.83801 8.13934C8.34279 8.42884 8.76299 8.84544 9.05683 9.34771C10.1223 9.40936 11.184 9.52483 12.2378 9.69366Z" fill="#1E3636"/>
</g>
<defs>
<clipPath id="clip0_331_966">
<rect width="12.1189" height="26.7332" fill="white" transform="translate(0.118896)"/>
</clipPath>
</defs>
</svg>
