<svg width="33" height="27" viewBox="0 0 33 27" fill="none" xmlns="http://www.w3.org/2000/svg">
<g clip-path="url(#clip0_331_1001)">
<path d="M9.39586 3.53749C9.39562 4.19738 9.1997 4.84238 8.83288 5.39093C8.46606 5.93947 7.94481 6.36693 7.33506 6.61923C6.7253 6.87153 6.05442 6.93736 5.40725 6.80838C4.76009 6.6794 4.1657 6.36141 3.69926 5.89462C3.23282 5.42783 2.91527 4.83321 2.78677 4.18595C2.65827 3.53869 2.72459 2.86786 2.97735 2.25829C3.23011 1.64872 3.65795 1.12779 4.20676 0.761379C4.75558 0.394965 5.40073 0.199523 6.06062 0.199768C6.49881 0.199793 6.93271 0.286161 7.33751 0.453937C7.74231 0.621712 8.11008 0.867607 8.41981 1.17757C8.72955 1.48753 8.97517 1.85549 9.14264 2.26041C9.31012 2.66534 9.39617 3.0993 9.39586 3.53749Z" fill="#ED2B00"/>
<path d="M12.1189 9.89343V14.1745C11.1554 13.9935 10.1822 13.8689 9.20425 13.8011C8.7438 18.3535 7.50925 26.933 6.05819 26.933C4.6096 26.933 3.37755 18.3585 2.9146 13.8036C1.93656 13.8692 0.963303 13.9931 0 14.1745V9.89343C1.05462 9.72447 2.11711 9.609 3.1834 9.54748C3.47724 9.04521 3.89744 8.62861 4.40222 8.33911C4.907 8.0496 5.47876 7.89728 6.06067 7.89728C6.64257 7.89728 7.21434 8.0496 7.71911 8.33911C8.22389 8.62861 8.64409 9.04521 8.93793 9.54748C10.0034 9.60913 11.0651 9.7246 12.1189 9.89343Z" fill="#ED2B00"/>
</g>
<g clip-path="url(#clip1_331_1001)">
<path d="M29.5148 3.53749C29.5145 4.19738 29.3186 4.84238 28.9518 5.39093C28.585 5.93947 28.0637 6.36693 27.454 6.61923C26.8442 6.87153 26.1733 6.93736 25.5262 6.80838C24.879 6.6794 24.2846 6.36141 23.8182 5.89462C23.3517 5.42783 23.0342 4.83321 22.9057 4.18595C22.7772 3.53869 22.8435 2.86786 23.0962 2.25829C23.349 1.64872 23.7768 1.12779 24.3257 0.761379C24.8745 0.394965 25.5196 0.199523 26.1795 0.199768C26.6177 0.199793 27.0516 0.286161 27.4564 0.453937C27.8612 0.621712 28.229 0.867607 28.5387 1.17757C28.8484 1.48753 29.0941 1.85549 29.2615 2.26041C29.429 2.66534 29.5151 3.0993 29.5148 3.53749Z" fill="#172ADB"/>
<path d="M32.2378 9.89343V14.1745C31.2743 13.9935 30.3011 13.8689 29.3232 13.8011C28.8627 18.3535 27.6282 26.933 26.1771 26.933C24.7285 26.933 23.4964 18.3585 23.0335 13.8036C22.0555 13.8692 21.0822 13.9931 20.1189 14.1745V9.89343C21.1735 9.72447 22.236 9.609 23.3023 9.54748C23.5961 9.04521 24.0163 8.62861 24.5211 8.33911C25.0259 8.0496 25.5977 7.89728 26.1796 7.89728C26.7615 7.89728 27.3332 8.0496 27.838 8.33911C28.3428 8.62861 28.763 9.04521 29.0568 9.54748C30.1223 9.60913 31.184 9.7246 32.2378 9.89343Z" fill="#172ADB"/>
</g>
<defs>
<clipPath id="clip0_331_1001">
<rect width="12.1189" height="26.7332" fill="white" transform="translate(0 0.199768)"/>
</clipPath>
<clipPath id="clip1_331_1001">
<rect width="12.1189" height="26.7332" fill="white" transform="translate(20.1189 0.199768)"/>
</clipPath>
</defs>
</svg>
