<svg width="272" height="87" viewBox="0 0 272 87" fill="none" xmlns="http://www.w3.org/2000/svg">
<path d="M163.261 36.795C163.726 36.5808 164.326 36.2937 164.805 35.8595C164.975 35.6542 165.135 35.4674 165.287 35.2939C166.419 34.0028 167.068 33.4424 167.172 31.3832C167.287 29.0975 169.451 26.532 171.04 26.6697C173.518 26.8844 176.006 27.2985 178.479 27.6008C181.378 27.9551 183.925 27.5375 184.643 32.0815C186.056 41.0085 183.068 52.5851 179.287 59.6642C175.188 67.3381 168.598 69.4404 161.858 69.4404C158.11 69.4404 155.436 64.7384 151.826 63.6794C139.971 60.2019 127.804 61.1838 115.777 62.3992C109.238 63.0601 102.569 64.6726 96.2442 67.0254C91.5989 68.7534 87.1684 71.3442 82.556 73.1937C78.7032 74.7387 74.5148 74.8222 70.547 74.3866C62.6357 73.5182 54.3159 71.6251 47.3366 66.1525C41.8421 61.8441 37.2211 54.3505 34.4987 46.5421C33.3386 43.2148 32.6526 36.777 33.1809 33.0708C34.1243 26.4517 41.2482 27.0771 44.9136 27.0771C52.6539 27.0771 59.788 23.4084 66.4023 18.0283C68.7387 16.1279 70.7402 14.6913 73.3952 13.6348C78.1375 11.7477 80.8218 10.9446 86.0418 12.2673C94.9172 14.5163 113.619 21.4347 120.751 23.9638C133.564 28.5073 147.53 35.0863 160.838 37.4351C161.31 37.5184 162.791 37.0116 163.261 36.795Z" fill="#EAFEFF"/>
<path d="M220.254 49.4339C220.847 49.6481 221.613 49.9352 222.225 50.3694C222.441 50.5747 222.646 50.7615 222.841 50.935C224.285 52.2261 225.113 52.7865 225.246 54.8457C225.393 57.1314 228.154 59.6969 230.183 59.5592C233.346 59.3445 236.521 58.9304 239.678 58.6281C243.377 58.2739 246.627 58.6914 247.545 54.1474C249.347 45.2204 245.535 33.6438 240.709 26.5647C235.477 18.8908 227.066 16.7886 218.464 16.7886C213.68 16.7886 210.267 21.4905 205.659 22.5495C190.528 26.027 175 25.0451 159.65 23.8297C151.304 23.1688 142.792 21.5563 134.72 19.2035C128.791 17.4755 123.136 14.8847 117.249 13.0352C112.332 11.4903 106.986 11.4067 101.922 11.8423C91.8245 12.7107 81.2058 14.6038 72.2981 20.0764C65.2853 24.3848 59.3875 31.8784 55.9128 39.6869C54.4322 43.0141 53.5566 49.4519 54.2308 53.1582C55.435 59.7772 64.5274 59.1519 69.2055 59.1519C79.0846 59.1519 88.1899 62.8205 96.6319 68.2006C99.6138 70.101 102.168 71.5376 105.557 72.5941C111.61 74.4812 115.036 75.2843 121.698 73.9616C133.026 71.7126 156.895 64.7942 165.998 62.2651C182.352 57.7216 200.176 51.1426 217.162 48.7938C217.763 48.7106 219.654 49.2173 220.254 49.4339Z" fill="#EAFEFF"/>
<g clip-path="url(#clip0_331_214)">
<path d="M167.55 67.0483C165.571 69.0282 150.24 56.9225 133.312 39.9944C116.384 23.0662 104.279 7.73613 106.258 5.75624C108.245 3.76924 123.576 15.8749 140.504 32.8031C157.432 49.7312 169.537 65.0613 167.55 67.0483Z" fill="#64CDC7" stroke="#395559" stroke-miterlimit="10" stroke-linecap="round"/>
<path d="M167.55 67.0483L158.959 75.6397C156.972 77.6267 141.649 65.5138 124.721 48.5857C107.793 31.6575 95.68 16.3346 97.667 14.3476L106.258 5.75623C104.278 7.73612 116.384 23.0662 133.312 39.9944C150.24 56.9225 165.571 69.0282 167.55 67.0483Z" fill="#128999" stroke="#395559" stroke-miterlimit="10" stroke-linecap="round"/>
<path d="M104.159 15.8399L99.8618 20.1368" stroke="#395559" stroke-miterlimit="10" stroke-linecap="round"/>
<path d="M111.749 18.4315L104.35 25.8312" stroke="#395559" stroke-miterlimit="10" stroke-linecap="round"/>
<path d="M126.516 39.4033L121.027 44.8918" stroke="#395559" stroke-miterlimit="10" stroke-linecap="round"/>
<path d="M135.201 45.2926L131.199 49.2948" stroke="#395559" stroke-miterlimit="10" stroke-linecap="round"/>
<path d="M140.6 47.0804L136.989 50.6924" stroke="#395559" stroke-miterlimit="10" stroke-linecap="round"/>
<path d="M147.088 53.7701L139.688 61.1699" stroke="#395559" stroke-miterlimit="10" stroke-linecap="round"/>
<path d="M155.174 63.8526L148.772 70.2541" stroke="#395559" stroke-miterlimit="10" stroke-linecap="round"/>
<path d="M148.813 48.3065C148.044 49.0757 142.088 44.3725 135.511 37.7956C128.934 31.2188 124.231 25.2629 125 24.4936C125.772 23.7216 131.728 28.4249 138.305 35.0017C144.882 41.5785 149.585 47.5345 148.813 48.3065Z" fill="white" stroke="#395559" stroke-miterlimit="10" stroke-linecap="round"/>
<path d="M110.198 81.904C105.175 78.1837 100.988 73.4525 97.9044 68.0151C94.8213 62.5778 92.9114 56.555 92.2976 50.3346" stroke="#395559" stroke-miterlimit="10" stroke-linecap="round"/>
<path d="M179.703 59.1248C176.325 70.03 168.922 79.2401 158.999 84.8834" stroke="#395559" stroke-miterlimit="10" stroke-linecap="round"/>
<path d="M117.438 5.54246C126.151 1.35332 135.985 0.0925484 145.473 1.94814C154.96 3.80373 163.594 8.67629 170.087 15.8392" stroke="#395559" stroke-miterlimit="10" stroke-linecap="round"/>
<path d="M108.047 75.0165C101.657 68.682 97.5281 60.4207 96.2984 51.5071C95.0688 42.5935 96.8063 33.5229 101.243 25.6947" stroke="#395559" stroke-miterlimit="10" stroke-linecap="round"/>
<path d="M177.68 42.1471C177.793 43.3877 177.85 44.6435 177.851 45.9144C177.85 55.2233 174.68 64.2546 168.863 71.5221C163.046 78.7896 154.928 83.8602 145.845 85.8995" stroke="#395559" stroke-miterlimit="10" stroke-linecap="round"/>
<path d="M119.095 8.9983C124.731 6.2893 130.912 4.90362 137.166 4.94697C143.419 4.99033 149.58 6.46157 155.178 9.24846" stroke="#395559" stroke-miterlimit="10" stroke-linecap="round"/>
<path d="M147.089 76.9916C142.129 78.6144 136.853 79.0289 131.7 78.2007C126.547 77.3725 121.667 75.3255 117.465 72.2301" stroke="#395559" stroke-miterlimit="10" stroke-linecap="round"/>
<path d="M130.079 13.9213C136.793 12.5019 143.783 13.2264 150.062 15.9927C156.342 18.759 161.594 23.4275 165.078 29.3392" stroke="#395559" stroke-miterlimit="10" stroke-linecap="round"/>
</g>
<defs>
<clipPath id="clip0_331_214">
<rect width="88.405" height="85.785" fill="white" transform="translate(91.7976 0.614456)"/>
</clipPath>
</defs>
</svg>
