<svg width="272" height="85" viewBox="0 0 272 85" fill="none" xmlns="http://www.w3.org/2000/svg">
<path d="M208.797 36.2695C209.424 36.0583 210.234 35.7753 210.881 35.3472C211.109 35.1448 211.326 34.9607 211.532 34.7896C213.059 33.5167 213.935 32.9642 214.075 30.9341C214.23 28.6806 217.15 26.1514 219.295 26.2871C222.64 26.4988 225.997 26.907 229.335 27.205C233.247 27.5543 236.684 27.1426 237.654 31.6225C239.56 40.4236 235.528 51.8368 230.425 58.816C224.893 66.3816 215.999 68.4542 206.903 68.4542C201.845 68.4542 198.236 63.8186 193.364 62.7745C177.365 59.3461 160.945 60.3141 144.714 61.5124C135.889 62.1639 126.889 63.7537 118.353 66.0733C112.084 67.7769 106.104 70.3311 99.8795 72.1545C94.6798 73.6777 89.0273 73.76 83.6724 73.3306C72.9955 72.4745 61.7674 70.6081 52.3484 65.2128C44.933 60.9652 38.6967 53.5773 35.0226 45.879C33.457 42.5988 32.5311 36.2518 33.2441 32.5978C34.5174 26.0722 44.1316 26.6887 49.0783 26.6887C59.5244 26.6887 69.1523 23.0718 78.0789 17.7677C81.232 15.8941 83.9332 14.4778 87.5162 13.4362C93.9164 11.5757 97.539 10.784 104.584 12.088C116.562 14.3052 141.801 21.126 151.427 23.6194C168.719 28.0988 187.566 34.5849 205.527 36.9006C206.163 36.9827 208.163 36.483 208.797 36.2695Z" fill="#EAFEFF"/>
<g clip-path="url(#clip0_230_13887)">
<path d="M166.665 80.9313H118.506C111.12 71.9886 105.607 63.3245 101.662 52.4179C97.5807 41.1356 95.6286 28.2351 100.727 17.3745C104.121 10.2378 110.199 4.73254 117.636 2.0591C129.402 -2.10356 143.106 1.8203 152.344 10.2127C161.581 18.605 166.689 30.8472 168.336 43.2185C169.983 55.5897 169.046 68.6801 166.665 80.9313Z" fill="#6EE2DB" stroke="#1D1D1B" stroke-miterlimit="10" stroke-linejoin="round"/>
<path d="M125 20C127.209 20 129 18.2091 129 16C129 13.7909 127.209 12 125 12C122.791 12 121 13.7909 121 16C121 18.2091 122.791 20 125 20Z" fill="#FFC700" stroke="#1E3636" stroke-miterlimit="10"/>
<path d="M83.1902 63.7036C88.6025 68.7725 95.4381 72.0613 102.776 73.1271C102.338 67.8391 103.026 62.5183 104.793 57.5152C106.561 52.5121 109.368 47.9403 113.031 44.1011C111.258 47.3915 110.202 51.0194 109.93 54.747C109.658 58.4746 110.178 62.2175 111.454 65.7301C115.049 63.0053 119.184 61.0776 123.582 60.0756C127.98 59.0735 132.541 59.02 136.962 59.9186C134.146 63.3114 132.382 67.4521 131.886 71.8329C131.39 76.2137 132.183 80.6442 134.168 84.5809C133.575 83.3957 118.352 84.5245 116.415 84.517C111.348 84.4976 106.819 85.16 102.026 83.2983C97.653 81.5936 93.7034 78.958 90.4509 75.5745C87.1984 72.1909 84.7209 68.1403 83.1902 63.7036Z" fill="#128999" stroke="#1D1D1B" stroke-miterlimit="10" stroke-linejoin="round"/>
<path d="M184.017 59.0039C181.32 60.8834 179.192 63.4689 177.867 66.4771C176.541 69.4853 176.068 72.8002 176.501 76.059C176.063 73.0818 186.305 76.0671 187.366 77.0331C180.435 73.6044 176.387 81.7893 169.913 79.855C164.842 78.3403 161.494 70.833 158.915 66.7708C163.368 68.9584 167.645 71.8166 172.217 73.6856C175.014 67.7349 178.171 62.5226 184.017 59.0039Z" fill="#64CDC7" stroke="#1D1D1B" stroke-miterlimit="10" stroke-linejoin="round"/>
<path d="M120.263 41.5024C116.315 37.641 114.043 32.3819 113.939 26.8604C113.915 25.1184 114.45 22.9622 116.15 22.5854C117.774 22.2258 119.246 23.981 119.225 25.6434C119.205 27.3057 118.182 28.7731 117.138 30.0671C116.095 31.361 114.949 32.6774 114.602 34.3032L126.045 39.134" stroke="#1D1D1B" stroke-width="3" stroke-miterlimit="10" stroke-linecap="round" stroke-linejoin="round"/>
<path d="M127.809 22.3608L135.072 39.5801" stroke="#1D1D1B" stroke-width="3" stroke-miterlimit="10" stroke-linecap="round" stroke-linejoin="round"/>
<path d="M145.809 41.9778L138.245 22.9626C141.882 22.1673 147.424 21.3253 149.736 24.244C150.134 24.7828 150.42 25.3957 150.577 26.0466C150.735 26.6974 150.761 27.3732 150.653 28.0342C150.546 28.6953 150.308 29.3282 149.953 29.8959C149.597 30.4636 149.132 30.9546 148.585 31.3401C146.29 32.7712 142.778 31.5879 141.923 29.0223" stroke="#1D1D1B" stroke-width="3" stroke-miterlimit="10" stroke-linecap="round" stroke-linejoin="round"/>
<path d="M128.5 7C136.834 7 155 12.1 161 32.5" stroke="black" stroke-linecap="round"/>
<path d="M113.5 12C109 13.5 100.9 21.2 104.5 40" stroke="black" stroke-linecap="round"/>
<path d="M118.5 46.5H163M135.5 76.5H158.5" stroke="black" stroke-linecap="round"/>
</g>
<defs>
<clipPath id="clip0_230_13887">
<rect width="107.298" height="85" fill="white" transform="translate(82.3508)"/>
</clipPath>
</defs>
</svg>
