<svg width="13" height="13" viewBox="0 0 13 13" fill="none" xmlns="http://www.w3.org/2000/svg">
<g clip-path="url(#clip0_419_577)">
<path d="M10.7714 3.52799L7.52143 0.527985C7.42857 0.442271 7.33571 0.399414 7.19643 0.399414H2.55357C2.04286 0.399414 1.625 0.785128 1.625 1.25656V11.5423C1.625 12.0137 2.04286 12.3994 2.55357 12.3994H9.98214C10.4929 12.3994 10.9107 12.0137 10.9107 11.5423V3.82799C10.9107 3.69941 10.8643 3.6137 10.7714 3.52799ZM7.19643 1.42799L9.79643 3.82799H7.19643V1.42799ZM9.98214 11.5423H2.55357V1.25656H6.26786V3.82799C6.26786 4.29941 6.68571 4.68513 7.19643 4.68513H9.98214V11.5423Z" fill="#1E3636"/>
<path d="M3.48218 8.97084H9.05361V9.82799H3.48218V8.97084ZM3.48218 6.39941H9.05361V7.25656H3.48218V6.39941Z" fill="#1E3636"/>
</g>
<defs>
<clipPath id="clip0_419_577">
<rect width="13" height="12" fill="white" transform="translate(0 0.399414)"/>
</clipPath>
</defs>
</svg>
