<svg width="24" height="25" viewBox="0 0 24 25" fill="none" xmlns="http://www.w3.org/2000/svg">
<g clip-path="url(#clip0_419_583)">
<path d="M5.2499 19.8994H18.7499C19.0349 19.8995 19.3093 20.0078 19.5176 20.2024C19.7259 20.397 19.8525 20.6634 19.8719 20.9477C19.8914 21.2321 19.8021 21.5133 19.6223 21.7344C19.4424 21.9555 19.1853 22.1001 18.9029 22.1389L18.7499 22.1494H5.2499C4.96487 22.1493 4.69049 22.041 4.48221 21.8465C4.27394 21.6519 4.14729 21.3855 4.12786 21.1011C4.10843 20.8167 4.19767 20.5356 4.37755 20.3145C4.55743 20.0934 4.81453 19.9488 5.0969 19.9099L5.2499 19.8994H18.7499H5.2499ZM11.8469 1.90991L11.9999 1.89941C12.2718 1.89943 12.5344 1.99788 12.7393 2.17656C12.9442 2.35525 13.0774 2.60208 13.1144 2.87141L13.1249 3.02441V14.5564L16.5074 11.1754C16.6982 10.9847 16.9511 10.8689 17.2201 10.8491C17.4891 10.8293 17.7562 10.9067 17.9729 11.0674L18.0989 11.1754C18.2896 11.3662 18.4054 11.6191 18.4252 11.8881C18.4451 12.1571 18.3676 12.4243 18.2069 12.6409L18.0989 12.7669L12.7949 18.0694C12.6044 18.2599 12.3519 18.3758 12.0832 18.3959C11.8146 18.416 11.5476 18.339 11.3309 18.1789L11.2049 18.0694L5.9009 12.7669C5.69961 12.5662 5.58178 12.2967 5.5711 12.0126C5.56042 11.7285 5.65767 11.4509 5.84332 11.2357C6.02896 11.0204 6.28923 10.8833 6.57179 10.8521C6.85435 10.8209 7.13824 10.8978 7.3664 11.0674L7.4924 11.1754L10.8749 14.5594V3.02441C10.8749 2.75256 10.9734 2.4899 11.1521 2.28502C11.3307 2.08014 11.5776 1.94689 11.8469 1.90991L11.9999 1.89941L11.8469 1.90991Z" fill="#1E3636"/>
</g>
<defs>
<clipPath id="clip0_419_583">
<rect width="24" height="24" fill="white" transform="translate(0 0.399414)"/>
</clipPath>
</defs>
</svg>
