<svg width="272" height="87" viewBox="0 0 272 87" fill="none" xmlns="http://www.w3.org/2000/svg">
<path d="M117.424 7.47124C108.328 3.05893 98.0213 -0.623409 88.2549 2.00619C82.0837 3.70068 76.8287 7.74563 73.6247 13.2677C70.9802 18.6386 69.3622 24.4531 68.8535 30.4141C67.8201 37.4019 66.799 44.6305 68.6739 51.4423C70.6243 57.7365 74.3948 63.3175 79.5134 67.4864C84.6116 71.6197 90.1846 75.1349 96.1151 77.958C104.007 82.0016 112.388 85.7962 121.263 85.8732C131.166 85.9593 140.602 81.3994 150.498 80.9884C156.859 80.7243 163.167 82.1858 169.531 82.3685C177.945 82.7783 186.256 80.3802 193.148 75.5539C196.547 73.1153 199.33 69.9225 201.278 66.2277C203.225 62.5329 204.283 58.4375 204.369 54.265C204.288 47.2534 201.017 40.4422 201.733 33.4666C202.122 29.6768 203.681 25.8868 202.845 22.1696C201.512 16.2474 194.961 13.3229 189.227 11.2764L171.115 4.81237C166.376 3.1211 161.098 1.4337 156.449 3.35728C153.056 5.04032 150.418 7.92716 149.053 11.4503C147.725 14.2717 147.126 17.58 143.439 17.6917C139.198 17.82 134.243 15.4302 130.445 13.7784C126.021 11.8537 121.763 9.57598 117.424 7.47124Z" fill="#EAFEFF"/>
<path d="M155.03 49.3664C155.052 50.2218 154.036 50.672 153.177 50.8296C146.874 52.0451 140.391 50.717 134.111 49.4114C133.264 49.2464 132.427 49.036 131.603 48.7811C131.671 49.1003 131.716 49.4237 131.739 49.7491C131.807 50.3173 131.807 50.8916 131.739 51.4599C132.304 51.5949 132.891 51.73 133.456 51.8876C137.951 53.0131 142.402 54.4538 146.852 55.7369C147.564 55.8768 148.241 56.1602 148.84 56.5698C149.133 56.7772 149.362 57.0619 149.502 57.392C149.641 57.722 149.686 58.0843 149.63 58.4382C149.514 58.7929 149.296 59.1057 149.003 59.3379C148.71 59.57 148.354 59.7111 147.981 59.7438C147.242 59.8066 146.497 59.7225 145.79 59.4962C143.17 58.8434 140.549 58.1906 137.929 57.5377C135.534 56.93 133.139 56.3447 130.767 55.7369C130.654 56.052 130.564 56.3447 130.451 56.6598C130.248 57.2901 130.022 57.9204 129.796 58.5732C130.225 58.7308 130.632 58.8883 130.926 59.0009C134.54 60.1265 138.132 61.2295 141.746 62.355H141.769C142.899 62.7152 144.254 63.368 144.254 64.5611C144.25 64.8047 144.188 65.0439 144.073 65.2589C143.81 65.7242 143.383 66.0768 142.876 66.2494C142.124 66.4518 141.334 66.4749 140.572 66.3169C138.727 66.0881 136.901 65.7346 135.105 65.2589C132.642 64.6286 130.225 63.8407 127.831 62.9853C127.805 63.0475 127.775 63.1077 127.74 63.1654C127.249 63.9608 126.681 64.7071 126.046 65.394C127.356 65.7091 128.667 66.0468 129.977 66.3619C131.174 66.6546 132.371 66.9472 133.546 67.2398C134.347 67.3991 135.128 67.6483 135.873 67.9827C136.528 68.3428 137.002 68.8831 136.889 69.4009C136.686 70.2337 135.195 70.7065 133.84 70.7965C131.835 70.8507 129.831 70.6541 127.876 70.2112C126.272 69.9411 124.691 69.6485 123.109 69.3333C123.134 69.2374 123.149 69.1394 123.154 69.0407C123.36 68.1788 123.422 67.2888 123.335 66.4069C123.29 65.9117 123.132 65.3039 122.635 65.1688C122.493 65.1349 122.345 65.1356 122.203 65.1708C122.062 65.2061 121.931 65.2749 121.822 65.3714C121.591 65.5749 121.399 65.8191 121.257 66.0918C120.685 66.9574 120.201 67.8773 119.811 68.8381C119.322 68.7664 118.839 68.6611 118.365 68.5229H118.32C118.518 68.1396 118.685 67.7405 118.817 67.3299C119.388 65.6124 119.603 63.7975 119.45 61.9948C119.382 61.252 119.133 60.3516 118.41 60.1265C118.195 60.0801 117.971 60.0867 117.759 60.1455C117.546 60.2043 117.351 60.3137 117.191 60.4641C116.858 60.7565 116.582 61.1075 116.377 61.4996C116.174 61.8373 115.858 62.31 115.541 62.8728C114.584 64.3067 113.966 65.9385 113.734 67.645C113.054 67.4413 112.395 67.1698 111.769 66.8346C111.86 66.7877 111.944 66.7269 112.017 66.6546C112.617 66.0444 113.052 65.2934 113.282 64.471C113.853 62.7535 114.068 60.9387 113.915 59.136C113.847 58.3932 113.599 57.4926 112.876 57.2901C112.659 57.2343 112.431 57.2339 112.214 57.289C111.997 57.3441 111.797 57.4529 111.633 57.6053C111.319 57.9143 111.046 58.2623 110.82 58.6408C109.678 60.2872 108.823 62.1136 108.29 64.0433C107.941 63.6504 107.617 63.237 107.318 62.8052C107.398 62.7507 107.474 62.6906 107.544 62.6251C108.148 62.0185 108.584 61.2662 108.809 60.4416C109.38 58.7241 109.595 56.9093 109.442 55.1066C109.374 54.3637 109.126 53.4633 108.403 53.2607C108.185 53.2104 107.959 53.2127 107.743 53.2675C107.527 53.3224 107.327 53.4281 107.16 53.5759C106.841 53.8831 106.573 54.2405 106.37 54.6339C105.669 55.7082 105.043 56.8288 104.495 57.988C102.837 55.0316 101.93 51.7164 101.852 48.3309C101.851 46.6316 102.263 44.9574 103.054 43.4518C103.845 41.9463 104.99 40.6544 106.392 39.6868C106.686 39.5067 109.013 36.8955 109.826 36.4003C112.932 34.5683 116.473 33.5968 120.082 33.5864C121.104 33.5896 122.123 33.6724 123.132 33.834C124.05 34.1201 124.985 34.3457 125.933 34.5094C125.082 34.6138 124.265 34.9066 123.542 35.3661C122.819 35.8257 122.208 36.4405 121.754 37.1656C121.751 37.1656 121.748 37.1661 121.745 37.1672C121.742 37.1683 121.74 37.17 121.738 37.1721C121.736 37.1742 121.734 37.1767 121.733 37.1794C121.732 37.1822 121.731 37.1852 121.731 37.1881C119.558 38.4954 117.528 40.027 115.677 41.7578C115.162 42.1044 114.739 42.5701 114.444 43.1149C114.149 43.6598 113.991 44.2677 113.983 44.8868C114.11 45.4565 114.423 45.9684 114.872 46.3429C115.321 46.7174 115.882 46.9335 116.468 46.9577C117.644 46.956 118.79 46.5859 119.743 45.8997C120.715 45.2694 121.596 44.4816 122.612 43.8963C123.415 43.4425 124.284 43.1159 125.187 42.9283C125.341 42.8767 125.5 42.8464 125.662 42.8383C125.865 42.8833 126.114 42.9283 126.385 42.9957C131.151 43.9638 145.993 46.6875 153.154 48.0381C153.968 48.1734 154.985 48.5335 155.03 49.3664Z" fill="#64CDC7" stroke="#1E3636" stroke-miterlimit="10"/>
<path d="M164.586 46.8451C164.155 51.0397 162.288 54.9586 159.299 57.9429C157.146 60.2581 154.637 62.2184 151.867 63.7506C149.568 65.253 146.769 65.7947 144.073 65.2588C144.188 65.0438 144.25 64.8046 144.254 64.561C144.254 63.3679 142.899 62.7151 141.769 62.355H141.747C138.132 61.2294 134.54 60.1264 130.926 59.0009C130.632 58.8883 130.225 58.7307 129.796 58.5732C130.022 57.9204 130.248 57.2901 130.451 56.6598C130.564 56.3446 130.655 56.052 130.768 55.7368C133.14 56.3446 135.534 56.9299 137.929 57.5377C140.549 58.1905 143.17 58.8433 145.79 59.4961C146.497 59.7224 147.242 59.8066 147.982 59.7437C148.355 59.7111 148.71 59.5699 149.003 59.3378C149.296 59.1057 149.514 58.7928 149.631 58.4381C149.686 58.0842 149.642 57.7219 149.502 57.3919C149.362 57.0619 149.133 56.7772 148.84 56.5697C148.241 56.1601 147.565 55.8767 146.852 55.7368C142.402 54.4537 137.951 53.013 133.456 51.8875C132.891 51.7299 132.304 51.5949 131.739 51.4598C131.807 50.8915 131.807 50.3173 131.739 49.749C131.716 49.4236 131.671 49.1002 131.603 48.781C132.427 49.036 133.264 49.2464 134.111 49.4113C140.391 50.717 146.875 52.0451 153.177 50.8295C154.036 50.6719 155.052 50.2217 155.03 49.3663C154.985 48.5334 153.968 48.1733 153.155 48.0382C145.994 46.6876 131.152 43.9638 126.385 42.9958C126.114 42.9283 125.865 42.8833 125.662 42.8384C125.567 42.8012 125.468 42.7711 125.368 42.7483L125.188 42.9284C124.284 43.116 123.415 43.4425 122.612 43.8964C121.596 44.4816 120.715 45.2695 119.743 45.8998C118.79 46.586 117.644 46.9561 116.468 46.9578C115.883 46.9336 115.322 46.7174 114.872 46.3429C114.423 45.9684 114.11 45.4566 113.983 44.8868C113.991 44.2678 114.149 43.6599 114.444 43.115C114.739 42.5701 115.162 42.1045 115.677 41.7579C117.529 40.0271 119.558 38.4955 121.731 37.1882C121.731 37.1852 121.732 37.1823 121.733 37.1795C121.734 37.1768 121.736 37.1742 121.738 37.1721C121.74 37.17 121.743 37.1684 121.745 37.1673C121.748 37.1662 121.751 37.1656 121.754 37.1657C122.793 36.5129 123.878 35.9276 124.962 35.3873C129.676 33.2161 134.794 32.0524 139.986 31.9709C145.179 31.8894 150.331 32.8921 155.111 34.9144C158.198 36.0724 160.835 38.1773 162.644 40.9256C163.488 42.8291 164.139 44.8122 164.586 46.8451Z" fill="#FFC700" stroke="#1E3636" stroke-miterlimit="10" stroke-linecap="round"/>
<path d="M108.809 60.4416C108.584 61.2662 108.148 62.0185 107.544 62.6252C107.474 62.6906 107.398 62.7508 107.319 62.8052C107.023 63.0376 106.673 63.1906 106.301 63.2497C105.929 63.3088 105.548 63.2721 105.195 63.1429C103.162 62.2425 103.591 60.0139 104.495 57.988C105.043 56.8288 105.669 55.7082 106.37 54.6339C106.574 54.2406 106.841 53.8832 107.16 53.5759C107.327 53.4281 107.527 53.3224 107.743 53.2675C107.959 53.2127 108.186 53.2104 108.403 53.2607C109.126 53.4633 109.374 54.3639 109.442 55.1066C109.595 56.9093 109.38 58.7241 108.809 60.4416Z" fill="#FFC700" stroke="#1E3636" stroke-miterlimit="10"/>
<path d="M113.282 64.4711C113.052 65.2935 112.617 66.0445 112.017 66.6547C111.944 66.727 111.86 66.7878 111.769 66.8347C111.474 67.0678 111.123 67.2213 110.751 67.2805C110.379 67.3396 109.998 67.3024 109.645 67.1724C109.07 66.9115 108.612 66.4467 108.362 65.8684C108.111 65.2901 108.086 64.6396 108.29 64.0434C108.823 62.1137 109.678 60.2873 110.82 58.6409C111.045 58.2624 111.319 57.9144 111.633 57.6054C111.797 57.4529 111.997 57.3442 112.214 57.2891C112.431 57.234 112.659 57.2344 112.876 57.2902C113.599 57.4928 113.847 58.3932 113.915 59.1361C114.068 60.9388 113.853 62.7536 113.282 64.4711Z" fill="#FFC700" stroke="#1E3636" stroke-miterlimit="10"/>
<path d="M118.817 67.3296C118.685 67.7402 118.518 68.1393 118.32 68.5227H118.298C118.159 68.8049 117.976 69.0632 117.755 69.288C117.693 69.368 117.625 69.4432 117.552 69.5131C117.247 69.8084 116.866 70.0133 116.451 70.1047C116.036 70.1962 115.604 70.1706 115.203 70.0309C114.732 69.8448 114.334 69.5118 114.07 69.0816C113.805 68.6513 113.687 68.1472 113.734 67.6448C113.966 65.9382 114.584 64.3065 115.542 62.8725C115.858 62.3097 116.174 61.837 116.377 61.4993C116.582 61.1072 116.858 60.7562 117.191 60.4639C117.351 60.3134 117.546 60.204 117.759 60.1452C117.971 60.0864 118.195 60.0799 118.41 60.1262C119.133 60.3513 119.382 61.2517 119.45 61.9946C119.603 63.7972 119.388 65.6121 118.817 67.3296Z" fill="#FFC700" stroke="#1E3636" stroke-miterlimit="10"/>
<path d="M123.154 69.0404C123.149 69.1391 123.134 69.2371 123.109 69.333C123.041 69.5581 122.974 69.7607 122.906 69.9858C122.765 70.5465 122.477 71.0595 122.07 71.4715C121.864 71.6692 121.607 71.8055 121.328 71.8652C121.048 71.9249 120.758 71.9055 120.489 71.8092C120.115 71.6508 119.81 71.3633 119.632 70.9994C119.453 70.6355 119.413 70.2196 119.517 69.8282H119.54C119.591 69.4886 119.682 69.1561 119.811 68.8378C120.201 67.877 120.685 66.9571 121.257 66.0915C121.399 65.8188 121.59 65.5746 121.821 65.3711C121.931 65.2746 122.062 65.2058 122.203 65.1705C122.345 65.1352 122.493 65.1346 122.635 65.1685C123.132 65.3036 123.29 65.9114 123.335 66.4066C123.421 67.2885 123.36 68.1785 123.154 69.0404Z" fill="#FFC700" stroke="#1E3636" stroke-miterlimit="10"/>
<path d="M164.641 35.0572C168.568 38.7206 171.124 43.6084 171.887 48.9142C174.746 44.681 178.318 40.9713 182.443 37.9486C183.561 37.3126 184.454 36.3477 185.001 35.1862C185.153 34.2528 185.032 33.2955 184.654 32.4283C184.275 31.561 183.655 30.8203 182.867 30.2943C180.866 28.7424 178.672 27.4565 176.339 26.4689L165.468 21.3047C164.088 20.5372 162.572 20.0449 161.003 19.8555C159.081 19.8344 157.212 20.4908 155.728 21.7087C154.595 22.5726 152.786 23.9886 152.486 25.4732C152.123 27.2655 154.044 27.7674 155.32 28.4453C158.728 30.1938 161.867 32.4204 164.641 35.0572Z" fill="#6EE2DB" stroke="#1E3636" stroke-miterlimit="10" stroke-linecap="round"/>
<path d="M111.084 31.0206C109.902 26.4034 107.813 22.0656 104.938 18.2583C101.323 19.6868 97.9973 21.7535 95.1194 24.359C92.3044 27.4449 90.4508 31.28 89.7846 35.3971C89.131 39.491 88.8843 43.6392 89.0481 47.7814C89.0535 48.5128 94.7095 49.0683 95.4308 48.8757C96.8809 48.4885 97.2923 47.098 97.8555 45.8678C99.6654 42.0088 102.179 38.5183 105.267 35.5735C107.041 33.8577 108.991 32.3317 111.084 31.0206Z" fill="#6EE2DB" stroke="#1E3636" stroke-miterlimit="10" stroke-linecap="round"/>
</svg>
