<svg width="33" height="28" viewBox="0 0 33 28" fill="none" xmlns="http://www.w3.org/2000/svg">
<g clip-path="url(#clip0_331_975)">
<path d="M9.39586 4.071C9.39562 4.73089 9.1997 5.37589 8.83288 5.92444C8.46606 6.47298 7.94481 6.90043 7.33506 7.15274C6.7253 7.40504 6.05442 7.47087 5.40725 7.34189C4.76009 7.21291 4.1657 6.89492 3.69926 6.42813C3.23282 5.96134 2.91527 5.36672 2.78677 4.71946C2.65827 4.0722 2.72459 3.40137 2.97735 2.7918C3.23011 2.18223 3.65795 1.6613 4.20676 1.29489C4.75558 0.928474 5.40073 0.733032 6.06062 0.733277C6.49881 0.733302 6.93271 0.81967 7.33751 0.987445C7.74231 1.15522 8.11008 1.40112 8.41981 1.71108C8.72955 2.02104 8.97517 2.389 9.14264 2.79392C9.31012 3.19885 9.39617 3.6328 9.39586 4.071Z" fill="#ED2B00"/>
<path d="M12.1189 10.4269V14.708C11.1554 14.527 10.1822 14.4024 9.20425 14.3347C8.7438 18.887 7.50925 27.4665 6.05819 27.4665C4.6096 27.4665 3.37755 18.892 2.9146 14.3371C1.93656 14.4027 0.963303 14.5266 0 14.708V10.4269C1.05462 10.258 2.11711 10.1425 3.1834 10.081C3.47724 9.57872 3.89744 9.16212 4.40222 8.87262C4.907 8.58311 5.47876 8.43079 6.06067 8.43079C6.64257 8.43079 7.21434 8.58311 7.71911 8.87262C8.22389 9.16212 8.64409 9.57872 8.93793 10.081C10.0034 10.1426 11.0651 10.2581 12.1189 10.4269Z" fill="#ED2B00"/>
</g>
<g clip-path="url(#clip1_331_975)">
<path d="M29.5148 4.071C29.5145 4.73089 29.3186 5.37589 28.9518 5.92444C28.585 6.47298 28.0637 6.90043 27.454 7.15274C26.8442 7.40504 26.1733 7.47087 25.5262 7.34189C24.879 7.21291 24.2846 6.89492 23.8182 6.42813C23.3517 5.96134 23.0342 5.36672 22.9057 4.71946C22.7772 4.0722 22.8435 3.40137 23.0962 2.7918C23.349 2.18223 23.7768 1.6613 24.3257 1.29489C24.8745 0.928474 25.5196 0.733032 26.1795 0.733277C26.6177 0.733302 27.0516 0.81967 27.4564 0.987445C27.8612 1.15522 28.229 1.40112 28.5387 1.71108C28.8484 2.02104 29.0941 2.389 29.2615 2.79392C29.429 3.19885 29.5151 3.6328 29.5148 4.071Z" fill="#172ADB"/>
<path d="M32.2378 10.4269V14.708C31.2743 14.527 30.3011 14.4024 29.3232 14.3347C28.8627 18.887 27.6282 27.4665 26.1771 27.4665C24.7285 27.4665 23.4964 18.892 23.0335 14.3371C22.0555 14.4027 21.0822 14.5266 20.1189 14.708V10.4269C21.1735 10.258 22.236 10.1425 23.3023 10.081C23.5961 9.57872 24.0163 9.16212 24.5211 8.87262C25.0259 8.58311 25.5977 8.43079 26.1796 8.43079C26.7615 8.43079 27.3332 8.58311 27.838 8.87262C28.3428 9.16212 28.763 9.57872 29.0568 10.081C30.1223 10.1426 31.184 10.2581 32.2378 10.4269Z" fill="#172ADB"/>
</g>
<defs>
<clipPath id="clip0_331_975">
<rect width="12.1189" height="26.7332" fill="white" transform="translate(0 0.733276)"/>
</clipPath>
<clipPath id="clip1_331_975">
<rect width="12.1189" height="26.7332" fill="white" transform="translate(20.1189 0.733276)"/>
</clipPath>
</defs>
</svg>
