<svg width="272" height="71" viewBox="0 0 272 71" fill="none" xmlns="http://www.w3.org/2000/svg">
<g clip-path="url(#clip0_230_13797)">
<path d="M149.216 8.52998C141.001 6.9446 131.653 6.70051 123.782 8.7574C115.91 10.8143 109.985 15.4582 110.632 20.2858C111.098 23.7516 114.709 27.1876 112.937 30.52C111.672 32.8989 107.812 34.6296 103.623 35.4752C99.4336 36.3207 94.8956 36.419 90.4426 36.5084L63.4765 37.05C54.8387 37.2235 44.5375 37.9638 40.7262 42.283C38.0052 45.3666 40.0632 49.2827 44.4097 51.7215C48.7562 54.1602 54.9213 55.3351 61.0197 55.8599C84.6306 57.8918 109.395 51.3746 132.208 55.3262C142.757 57.1536 151.957 61.113 162.786 62.3314C175.726 63.7872 189.322 61.0276 199.677 56.4682C210.032 51.9089 217.617 45.7092 224.459 39.423C227.718 36.4279 230.9 33.313 232.051 29.87C232.874 27.4045 232.618 24.8648 231.303 22.4662C229.989 20.0677 227.655 17.8809 224.499 16.0915C221.343 14.3021 217.459 12.9627 213.176 12.1869C208.893 11.4112 204.337 11.2219 199.894 11.6352C191.946 12.3745 181.301 17.2805 173.332 16.4291C169.856 16.0576 166.381 13.7226 163.461 12.6348C159.047 10.9332 154.26 9.55371 149.216 8.52998Z" fill="#EAFEFF"/>
</g>
<g clip-path="url(#clip1_230_13797)">
<path d="M122 41V16.6987C122 12.5351 123.144 8.54211 125.181 5.59804C127.217 2.65396 129.979 1 132.859 1H188.141C191.021 1 193.783 2.65396 195.819 5.59804C197.856 8.54211 199 12.5351 199 16.6987V41H122Z" fill="#128999" stroke="#1E3636" stroke-miterlimit="10"/>
<path d="M141.176 18.7686L149.286 12.1837L146.685 22.3248L146.506 23.025L147.224 22.946L157.598 21.8059L149.944 28.9284L149.417 29.4194L150.061 29.7417L159.405 34.4118L149.13 36.2511L148.419 36.3782L148.788 36.9986L154.131 45.9953L144.5 41.9693L143.831 41.69L143.807 42.4139L143.455 52.8775L137.523 44.2672L137.111 43.6695L136.699 44.2672L130.767 52.8775L130.415 42.4139L130.391 41.69L129.723 41.9693L120.091 45.9953L125.434 36.9986L125.803 36.3782L125.093 36.2511L114.817 34.4118L124.161 29.7417L124.806 29.4194L124.278 28.9284L116.624 21.8059L126.998 22.946L127.716 23.025L127.537 22.3248L124.936 12.1837L133.046 18.7686L133.609 19.2258L133.836 18.5369L137.111 8.59777L140.386 18.5369L140.613 19.2258L141.176 18.7686Z" fill="#6EE2DB" stroke="#1E3636"/>
<path d="M127.778 46.0246C133.362 46.0246 137.889 41.4819 137.889 35.8783C137.889 30.2746 133.362 25.7319 127.778 25.7319C122.194 25.7319 117.667 30.2746 117.667 35.8783C117.667 41.4819 122.194 46.0246 127.778 46.0246Z" fill="#FFC700" stroke="#1E3636" stroke-miterlimit="10"/>
<path d="M111.445 31.9756C111.445 31.9756 79.7753 44.9682 72.5557 69.439" stroke="#1E3636" stroke-miterlimit="10" stroke-linecap="round"/>
<path d="M78.7778 69.4392C78.7778 69.4392 93.2963 52.9487 122.333 49.1465" stroke="#1E3636" stroke-miterlimit="10" stroke-linecap="round"/>
<path d="M87.6559 55.3902C82.4494 58.9254 78.1645 63.8523 75.1708 69.7462" stroke="#1E3636" stroke-miterlimit="10" stroke-linecap="round"/>
</g>
<defs>
<clipPath id="clip0_230_13797">
<rect width="194" height="56" fill="white" transform="translate(39 7)"/>
</clipPath>
<clipPath id="clip1_230_13797">
<rect width="128" height="71" fill="white" transform="translate(72)"/>
</clipPath>
</defs>
</svg>
