<svg width="13" height="27" viewBox="0 0 13 27" fill="none" xmlns="http://www.w3.org/2000/svg">
<g clip-path="url(#clip0_331_963)">
<path d="M9.39586 3.33772C9.39562 3.99761 9.1997 4.64262 8.83288 5.19116C8.46606 5.73971 7.94481 6.16716 7.33506 6.41946C6.7253 6.67177 6.05442 6.73759 5.40725 6.60861C4.76009 6.47963 4.1657 6.16164 3.69926 5.69485C3.23282 5.22807 2.91527 4.63344 2.78677 3.98618C2.65827 3.33892 2.72459 2.66809 2.97735 2.05852C3.23011 1.44895 3.65795 0.928025 4.20676 0.561611C4.75558 0.195197 5.40073 -0.000244585 6.06062 2.29714e-07C6.49881 2.5386e-05 6.93271 0.0863932 7.33751 0.254169C7.74231 0.421944 8.11008 0.667839 8.41981 0.977802C8.72955 1.28777 8.97517 1.65572 9.14264 2.06065C9.31012 2.46557 9.39617 2.89953 9.39586 3.33772Z" fill="#456B13"/>
<path d="M12.1189 9.69366V13.9747C11.1554 13.7938 10.1822 13.6691 9.20425 13.6014C8.7438 18.1537 7.50925 26.7332 6.05819 26.7332C4.6096 26.7332 3.37755 18.1587 2.9146 13.6039C1.93656 13.6695 0.963303 13.7933 0 13.9747V9.69366C1.05462 9.5247 2.11711 9.40923 3.1834 9.34771C3.47724 8.84544 3.89744 8.42884 4.40222 8.13934C4.907 7.84984 5.47876 7.69751 6.06067 7.69751C6.64257 7.69751 7.21434 7.84984 7.71911 8.13934C8.22389 8.42884 8.64409 8.84544 8.93793 9.34771C10.0034 9.40936 11.0651 9.52483 12.1189 9.69366Z" fill="#456B13"/>
</g>
<defs>
<clipPath id="clip0_331_963">
<rect width="12.1189" height="26.7332" fill="white"/>
</clipPath>
</defs>
</svg>
