<svg width="24" height="24" viewBox="0 0 24 24" fill="none" xmlns="http://www.w3.org/2000/svg">
<g clip-path="url(#clip0_331_823)">
<ellipse cx="12" cy="5.5" rx="3" ry="2.5" fill="#9BF9FF"/>
<circle cx="5" cy="6" r="2" fill="#9BF9FF"/>
<circle cx="19" cy="6" r="2" fill="#9BF9FF"/>
<path d="M11.9999 3.5999C11.5225 3.5999 11.0647 3.78954 10.7271 4.12711C10.3895 4.46468 10.1999 4.92251 10.1999 5.3999C10.1999 5.87729 10.3895 6.33513 10.7271 6.6727C11.0647 7.01026 11.5225 7.1999 11.9999 7.1999C12.4773 7.1999 12.9351 7.01026 13.2727 6.6727C13.6103 6.33513 13.7999 5.87729 13.7999 5.3999C13.7999 4.92251 13.6103 4.46468 13.2727 4.12711C12.9351 3.78954 12.4773 3.5999 11.9999 3.5999ZM8.9999 5.3999C8.9999 4.60425 9.31597 3.84119 9.87858 3.27858C10.4412 2.71597 11.2043 2.3999 11.9999 2.3999C12.7956 2.3999 13.5586 2.71597 14.1212 3.27858C14.6838 3.84119 14.9999 4.60425 14.9999 5.3999C14.9999 6.19555 14.6838 6.95861 14.1212 7.52122C13.5586 8.08383 12.7956 8.3999 11.9999 8.3999C11.2043 8.3999 10.4412 8.08383 9.87858 7.52122C9.31597 6.95861 8.9999 6.19555 8.9999 5.3999ZM18.5999 4.7999C18.2816 4.7999 17.9764 4.92633 17.7514 5.15137C17.5263 5.37642 17.3999 5.68164 17.3999 5.9999C17.3999 6.31816 17.5263 6.62339 17.7514 6.84843C17.9764 7.07347 18.2816 7.1999 18.5999 7.1999C18.9182 7.1999 19.2234 7.07347 19.4484 6.84843C19.6735 6.62339 19.7999 6.31816 19.7999 5.9999C19.7999 5.68164 19.6735 5.37642 19.4484 5.15137C19.2234 4.92633 18.9182 4.7999 18.5999 4.7999ZM16.1999 5.9999C16.1999 5.36338 16.4528 4.75293 16.9028 4.30285C17.3529 3.85276 17.9634 3.5999 18.5999 3.5999C19.2364 3.5999 19.8469 3.85276 20.297 4.30285C20.747 4.75293 20.9999 5.36338 20.9999 5.9999C20.9999 6.63642 20.747 7.24687 20.297 7.69696C19.8469 8.14705 19.2364 8.3999 18.5999 8.3999C17.9634 8.3999 17.3529 8.14705 16.9028 7.69696C16.4528 7.24687 16.1999 6.63642 16.1999 5.9999ZM4.1999 5.9999C4.1999 5.68164 4.32633 5.37642 4.55137 5.15137C4.77642 4.92633 5.08164 4.7999 5.3999 4.7999C5.71816 4.7999 6.02339 4.92633 6.24843 5.15137C6.47347 5.37642 6.5999 5.68164 6.5999 5.9999C6.5999 6.31816 6.47347 6.62339 6.24843 6.84843C6.02339 7.07347 5.71816 7.1999 5.3999 7.1999C5.08164 7.1999 4.77642 7.07347 4.55137 6.84843C4.32633 6.62339 4.1999 6.31816 4.1999 5.9999ZM5.3999 3.5999C4.76338 3.5999 4.15293 3.85276 3.70285 4.30285C3.25276 4.75293 2.9999 5.36338 2.9999 5.9999C2.9999 6.63642 3.25276 7.24687 3.70285 7.69696C4.15293 8.14705 4.76338 8.3999 5.3999 8.3999C6.03642 8.3999 6.64687 8.14705 7.09696 7.69696C7.54705 7.24687 7.7999 6.63642 7.7999 5.9999C7.7999 5.36338 7.54705 4.75293 7.09696 4.30285C6.64687 3.85276 6.03642 3.5999 5.3999 3.5999ZM6.1199 17.9975C5.79498 18.0138 5.47015 17.9638 5.16513 17.8507C4.86012 17.7375 4.58129 17.5635 4.3456 17.3393C4.1099 17.115 3.92226 16.8452 3.79407 16.5462C3.66588 16.2472 3.59982 15.9252 3.5999 15.5999V11.0999C3.5999 11.0203 3.63151 10.944 3.68777 10.8878C3.74403 10.8315 3.82034 10.7999 3.8999 10.7999H6.0167C6.0647 10.3595 6.2207 9.9503 6.4547 9.5999H3.8999C3.0719 9.5999 2.3999 10.2719 2.3999 11.0999V15.5999C2.39985 16.1136 2.50975 16.6215 2.72222 17.0892C2.9347 17.5569 3.24483 17.9738 3.63177 18.3117C4.01871 18.6497 4.4735 18.9009 4.96558 19.0485C5.45766 19.1961 5.97564 19.2367 6.4847 19.1675C6.32319 18.7911 6.20094 18.399 6.1199 17.9975ZM17.5151 19.1675C18.0242 19.2367 18.5421 19.1961 19.0342 19.0485C19.5263 18.9009 19.9811 18.6497 20.368 18.3117C20.755 17.9738 21.0651 17.5569 21.2776 17.0892C21.4901 16.6215 21.6 16.1136 21.5999 15.5999V11.0999C21.5999 10.2719 20.9279 9.5999 20.0999 9.5999H17.5451C17.7803 9.9503 17.9351 10.3595 17.9831 10.7999H20.0999C20.1795 10.7999 20.2558 10.8315 20.312 10.8878C20.3683 10.944 20.3999 11.0203 20.3999 11.0999V15.5999C20.4 15.9252 20.3339 16.2472 20.2057 16.5462C20.0775 16.8452 19.8899 17.115 19.6542 17.3393C19.4185 17.5635 19.1397 17.7375 18.8347 17.8507C18.5297 17.9638 18.2048 18.0138 17.8799 17.9975C17.7988 18.399 17.6766 18.7911 17.5151 19.1675ZM8.6999 9.5999C7.8719 9.5999 7.1999 10.2719 7.1999 11.0999V16.7999C7.1999 18.0729 7.70562 19.2938 8.60579 20.194C9.50596 21.0942 10.7269 21.5999 11.9999 21.5999C13.2729 21.5999 14.4938 21.0942 15.394 20.194C16.2942 19.2938 16.7999 18.0729 16.7999 16.7999V11.0999C16.7999 10.2719 16.1279 9.5999 15.2999 9.5999H8.6999ZM8.3999 11.0999C8.3999 11.0203 8.43151 10.944 8.48777 10.8878C8.54403 10.8315 8.62034 10.7999 8.6999 10.7999H15.2999C15.3795 10.7999 15.4558 10.8315 15.512 10.8878C15.5683 10.944 15.5999 11.0203 15.5999 11.0999V16.7999C15.5999 17.7547 15.2206 18.6704 14.5455 19.3455C13.8704 20.0206 12.9547 20.3999 11.9999 20.3999C11.0451 20.3999 10.1294 20.0206 9.45432 19.3455C8.77919 18.6704 8.3999 17.7547 8.3999 16.7999V11.0999Z" fill="#1E3636"/>
</g>
<defs>
<clipPath id="clip0_331_823">
<rect width="24" height="24" fill="white"/>
</clipPath>
</defs>
</svg>
