<svg width="33" height="27" viewBox="0 0 33 27" fill="none" xmlns="http://www.w3.org/2000/svg">
<g clip-path="url(#clip0_331_962)">
<path d="M9.39587 3.33772C9.39562 3.99761 9.1997 4.64262 8.83288 5.19116C8.46606 5.73971 7.94481 6.16716 7.33506 6.41946C6.7253 6.67177 6.05442 6.73759 5.40725 6.60861C4.76009 6.47963 4.1657 6.16164 3.69926 5.69485C3.23282 5.22807 2.91527 4.63344 2.78677 3.98618C2.65827 3.33892 2.72459 2.66809 2.97735 2.05852C3.23011 1.44895 3.65795 0.928025 4.20676 0.561611C4.75558 0.195197 5.40073 -0.000244585 6.06062 2.29714e-07C6.49881 2.5386e-05 6.93271 0.0863932 7.33751 0.254169C7.74231 0.421944 8.11008 0.667839 8.41981 0.977802C8.72955 1.28777 8.97517 1.65572 9.14264 2.06065C9.31012 2.46557 9.39617 2.89953 9.39587 3.33772V3.33772Z" fill="#456B13"/>
<path d="M12.1189 9.69366V13.9747C11.1554 13.7938 10.1822 13.6691 9.20425 13.6014C8.7438 18.1537 7.50926 26.7333 6.05819 26.7333C4.6096 26.7333 3.37755 18.1587 2.9146 13.6039C1.93656 13.6695 0.963303 13.7933 0 13.9747V9.69366C1.05462 9.5247 2.11711 9.40923 3.1834 9.34771C3.47724 8.84544 3.89744 8.42884 4.40222 8.13934C4.907 7.84984 5.47876 7.69751 6.06067 7.69751C6.64257 7.69751 7.21434 7.84984 7.71911 8.13934C8.22389 8.42884 8.64409 8.84544 8.93793 9.34771C10.0034 9.40936 11.0651 9.52483 12.1189 9.69366V9.69366Z" fill="#456B13"/>
</g>
<g clip-path="url(#clip1_331_962)">
<path d="M29.5148 3.33772C29.5145 3.99761 29.3186 4.64262 28.9518 5.19116C28.585 5.73971 28.0637 6.16716 27.454 6.41946C26.8442 6.67177 26.1733 6.73759 25.5262 6.60861C24.879 6.47963 24.2846 6.16164 23.8182 5.69485C23.3517 5.22807 23.0342 4.63344 22.9057 3.98618C22.7772 3.33892 22.8435 2.66809 23.0962 2.05852C23.349 1.44895 23.7768 0.928025 24.3257 0.561611C24.8745 0.195197 25.5196 -0.000244585 26.1795 2.29714e-07C26.6177 2.5386e-05 27.0516 0.0863932 27.4564 0.254169C27.8612 0.421944 28.229 0.667839 28.5387 0.977802C28.8484 1.28777 29.0941 1.65572 29.2615 2.06065C29.429 2.46557 29.5151 2.89953 29.5148 3.33772V3.33772Z" fill="#1E3636"/>
<path d="M32.2378 9.69366V13.9747C31.2743 13.7938 30.3011 13.6691 29.3232 13.6014C28.8627 18.1537 27.6282 26.7333 26.1771 26.7333C24.7285 26.7333 23.4964 18.1587 23.0335 13.6039C22.0555 13.6695 21.0822 13.7933 20.1189 13.9747V9.69366C21.1735 9.5247 22.236 9.40923 23.3023 9.34771C23.5961 8.84544 24.0163 8.42884 24.5211 8.13934C25.0259 7.84984 25.5977 7.69751 26.1796 7.69751C26.7615 7.69751 27.3332 7.84984 27.838 8.13934C28.3428 8.42884 28.763 8.84544 29.0568 9.34771C30.1223 9.40936 31.184 9.52483 32.2378 9.69366V9.69366Z" fill="#1E3636"/>
</g>
<defs>
<clipPath id="clip0_331_962">
<rect width="12.1189" height="26.7332" fill="white"/>
</clipPath>
<clipPath id="clip1_331_962">
<rect width="12.1189" height="26.7332" fill="white" transform="translate(20.1189)"/>
</clipPath>
</defs>
</svg>
