<svg width="79" height="40" viewBox="0 0 79 40" fill="none" xmlns="http://www.w3.org/2000/svg">
<g clip-path="url(#clip0_236_869)">
<path d="M23.6903 7.33772C23.6901 7.99761 23.4941 8.64262 23.1273 9.19116C22.7605 9.73971 22.2392 10.1672 21.6295 10.4195C21.0197 10.6718 20.3489 10.7376 19.7017 10.6086C19.0545 10.4796 18.4601 10.1616 17.9937 9.69485C17.5273 9.22807 17.2097 8.63344 17.0812 7.98618C16.9527 7.33892 17.019 6.66809 17.2718 6.05852C17.5245 5.44895 17.9524 4.92802 18.5012 4.56161C19.05 4.1952 19.6952 3.99976 20.3551 4C20.7932 4.00003 21.2271 4.08639 21.6319 4.25417C22.0367 4.42194 22.4045 4.66784 22.7142 4.9778C23.024 5.28777 23.2696 5.65572 23.4371 6.06065C23.6046 6.46557 23.6906 6.89953 23.6903 7.33772Z" fill="#1E3636"/>
<path d="M54.9119 30.8827C53.1223 34.3715 49.8767 35.7061 47.1769 35.7061C42.9603 35.7061 38.7139 33.2487 38.7139 28.3653V20.9636C38.7139 16.11 42.9603 13.6228 47.268 13.6228C49.9071 13.6228 53.092 14.7453 54.8211 18.5674L50.3924 20.3572C48.9361 17.6876 44.1436 18.2944 44.1436 20.9636V28.3653C44.1436 30.9434 48.9969 31.6717 50.1799 28.6991L54.9119 30.8827Z" fill="#1E3636"/>
<path d="M68.1662 13.9263H74.9305L66.4371 24.4823L74.9002 35.4025H68.0751L62.5239 27.7279L62.3422 27.9706V35.4025H56.8818V13.9263H62.3422V21.8736L68.1662 13.9263Z" fill="#1E3636"/>
<path d="M36.7077 24.6303C36.7077 32.4955 31.6626 36 20.3551 36C9.04268 36 4 32.4955 4 24.6303C4 18.9704 6.61592 15.568 12.3032 14.1069V18.4975C8.23127 19.9063 8.23127 22.5371 8.23127 24.6303C8.23127 27.6445 8.23127 31.7687 20.3551 31.7687C32.4764 31.7687 32.4764 27.6445 32.4764 24.6303C32.4764 22.5371 32.4764 19.9063 28.4045 18.4975V14.1069C34.0918 15.568 36.7077 18.9704 36.7077 24.6303Z" fill="#1E3636"/>
<path d="M26.4133 13.6937V17.9747C25.4498 17.7938 24.4766 17.6691 23.4987 17.6014C23.0382 22.1537 21.8037 30.7332 20.3526 30.7332C18.904 30.7332 17.672 22.1587 17.209 17.6039C16.231 17.6695 15.2577 17.7933 14.2944 17.9747V13.6937C15.3491 13.5247 16.4115 13.4092 17.4778 13.3477C17.7717 12.8454 18.1919 12.4288 18.6967 12.1393C19.2014 11.8498 19.7732 11.6975 20.3551 11.6975C20.937 11.6975 21.5088 11.8498 22.0135 12.1393C22.5183 12.4288 22.9385 12.8454 23.2324 13.3477C24.2978 13.4094 25.3595 13.5248 26.4133 13.6937Z" fill="#1E3636"/>
</g>
<defs>
<clipPath id="clip0_236_869">
<rect width="70.9305" height="32" fill="white" transform="translate(4 4)"/>
</clipPath>
</defs>
</svg>
