<svg width="24" height="24" viewBox="0 0 24 24" fill="none" xmlns="http://www.w3.org/2000/svg">
<g clip-path="url(#clip0_439_563)">
<path d="M14.75 7.00078V7.00102C14.7498 7.54492 14.5883 8.07654 14.286 8.52867C13.9836 8.98079 13.554 9.3331 13.0514 9.54106C12.5489 9.74901 11.9959 9.80327 11.4625 9.69696C10.9291 9.59065 10.4392 9.32856 10.0547 8.94382C9.67028 8.55908 9.40855 8.06898 9.30264 7.5355C9.19673 7.00201 9.2514 6.4491 9.45972 5.94668C9.66805 5.44426 10.0207 5.0149 10.473 4.71289C10.9254 4.41089 11.4571 4.2498 12.001 4.25H12.0013C12.3624 4.25002 12.72 4.3212 13.0536 4.45947C13.3872 4.59775 13.6903 4.8004 13.9456 5.05586C14.2009 5.31131 14.4033 5.61456 14.5413 5.94828C14.6793 6.282 14.7502 6.63965 14.75 7.00078Z" fill="#9BF9FF" stroke="#1E3636" stroke-width="1.5"/>
<path d="M18.25 13.3517V16.5415C17.3988 16.4139 16.5422 16.3216 15.6825 16.2647L14.9631 16.2171L14.8872 16.9341C14.6227 19.4313 14.1364 23.0253 13.5111 25.9848C13.1973 27.4699 12.8553 28.7619 12.5004 29.6695C12.3211 30.1277 12.1548 30.4451 12.0131 30.6349C12.0083 30.6414 12.0036 30.6476 11.999 30.6536C11.9946 30.6478 11.99 30.6418 11.9853 30.6355C11.844 30.4459 11.6779 30.1286 11.4989 29.6706C11.1445 28.7634 10.8031 27.4719 10.4896 25.9873C9.86504 23.0288 9.37877 19.4353 9.11281 16.9364L9.0367 16.2214L8.31908 16.2674C7.45879 16.3225 6.60159 16.4139 5.75 16.5414V13.3517C6.73495 13.2183 7.72542 13.1241 8.71881 13.0693L9.11158 13.0477L9.31708 12.7123C9.58658 12.2723 9.9746 11.9033 10.4458 11.6452C10.9172 11.387 11.4537 11.25 12.0014 11.25C12.5492 11.25 13.0856 11.387 13.557 11.6452L13.912 10.9972L13.557 11.6452C14.0283 11.9033 14.4163 12.2723 14.6858 12.7123L14.8912 13.0476L15.2839 13.0693C16.2764 13.1242 17.2659 13.2184 18.25 13.3517ZM11.8848 30.7744C11.8848 30.7743 11.8862 30.7734 11.8888 30.7719C11.8862 30.7738 11.8848 30.7745 11.8848 30.7744ZM12.109 30.7721C12.1118 30.7736 12.1132 30.7746 12.1132 30.7747C12.1132 30.7748 12.1118 30.7741 12.109 30.7721Z" stroke="#1E3636" stroke-width="1.5"/>
</g>
<rect x="0.75" y="0.75" width="22.5" height="22.5" rx="11.25" stroke="#1E3636" stroke-width="1.5"/>
<defs>
<clipPath id="clip0_439_563">
<rect width="24" height="24" rx="12" fill="white"/>
</clipPath>
</defs>
</svg>
