<svg width="272" height="85" viewBox="0 0 272 85" fill="none" xmlns="http://www.w3.org/2000/svg">
<g clip-path="url(#clip0_230_14032)">
<path d="M144.932 22.5132C139.848 22.41 135.055 20.1553 130.718 17.5011C126.382 14.8469 122.298 11.7376 117.677 9.61712C113.306 7.76451 108.59 6.86544 103.844 6.97992C99.0983 7.0944 94.4315 8.2198 90.155 10.281C85.8538 12.015 82.3963 15.2354 79.0189 18.3797C73.6114 22.3828 68.1781 26.866 65.787 33.0993C65.0038 36.7832 64.5942 40.6269 63.7715 44.3885C63.9333 45.0138 64.0472 45.6505 64.1121 46.293C66.9962 54.2882 69.9347 62.8265 76.4049 68.4393C82.6516 74.2972 92.1285 77.1922 99.7899 73.6555C104.143 71.6062 108.24 68.1472 112.85 68.9274C117.806 69.8475 120.831 74.739 125.003 77.4832C130.883 81.0003 138.223 80.9854 144.965 79.8651C151.707 78.7448 158.315 76.633 165.144 76.3745C170.855 76.3847 176.512 77.3556 182.197 77.7098C187.883 78.064 193.794 77.7538 198.915 75.2589C204.036 72.7641 208.204 67.6805 208.231 61.9841C208.349 57.9188 206.307 54.1038 203.901 50.8235C200.464 44.586 196.962 38.2544 193.459 31.9231C197.191 33.9827 202.499 31.4516 204.01 27.3614C205.522 23.2713 203.78 18.4832 200.604 15.4947C197.429 12.5063 193.083 11.0644 188.775 10.39C180.1 9.03037 171.215 10.355 163.314 14.1863C157.25 17.048 151.982 22.6562 144.932 22.5132Z" fill="#EAFEFF"/>
<path d="M135.689 33.2411C140.594 33.2411 144.57 29.2649 144.57 24.36C144.57 19.4552 140.594 15.479 135.689 15.479C130.784 15.479 126.808 19.4552 126.808 24.36C126.808 29.2649 130.784 33.2411 135.689 33.2411Z" fill="#64CDC7" stroke="#1E3636" stroke-miterlimit="10" stroke-linecap="round"/>
<path d="M168.449 83.8005C172.46 83.8005 175.712 80.549 175.712 76.538C175.712 72.527 172.46 69.2754 168.449 69.2754C164.438 69.2754 161.187 72.527 161.187 76.538C161.187 80.549 164.438 83.8005 168.449 83.8005Z" fill="#FFC700" stroke="#1E3636" stroke-miterlimit="10" stroke-linecap="round"/>
<path d="M155.315 33.6787C158.47 37.4342 178.025 66.8928 174.269 70.0478C170.514 73.2028 144.87 48.8594 141.715 45.1039C140.965 44.2109 140.398 43.1789 140.046 42.0668C139.695 40.9547 139.566 39.7843 139.667 38.6224C139.768 37.4605 140.097 36.3299 140.635 35.2951C141.173 34.2603 141.909 33.3415 142.802 32.5913C143.695 31.8412 144.727 31.2742 145.839 30.9229C146.951 30.5715 148.122 30.4426 149.284 30.5436C150.446 30.6446 151.576 30.9734 152.611 31.5113C153.646 32.0493 154.565 32.7857 155.315 33.6787Z" fill="#64CDC7" stroke="#1E3636" stroke-miterlimit="10" stroke-linecap="round"/>
<path d="M147.848 44.2336C150.474 44.2336 152.602 42.1049 152.602 39.4789C152.602 36.8529 150.474 34.7241 147.848 34.7241C145.222 34.7241 143.093 36.8529 143.093 39.4789C143.093 42.1049 145.222 44.2336 147.848 44.2336Z" fill="#EAFEFF" stroke="#1E3636" stroke-miterlimit="10" stroke-linecap="round"/>
<path d="M157.755 79.7786C148.476 82.161 138.651 81.1287 130.07 76.8698C121.489 72.6109 114.725 65.4093 111.012 56.5787C107.299 47.7481 106.884 37.8769 109.843 28.7658C112.802 19.6546 118.937 11.9107 127.13 6.94658C135.323 1.98246 145.027 0.128954 154.473 1.72415C163.919 3.31935 172.477 8.25696 178.585 15.6363C184.693 23.0156 187.946 32.3449 187.748 41.9224C187.551 51.4999 183.917 60.6874 177.51 67.8089" stroke="#128999" stroke-miterlimit="10" stroke-linecap="round"/>
<path d="M155.902 78.3306L155.681 78.7171L157.585 79.8052L156.361 81.6249L156.73 81.8731L158.222 79.6561L155.902 78.3306Z" fill="#1E3636"/>
<path d="M177.115 65.4949L177.56 65.4829L177.617 67.6754L179.8 67.4579L179.843 67.901L177.185 68.1652L177.115 65.4949Z" fill="#1E3636"/>
<path d="M126.18 67.44L120.804 65.316V64.284L126.18 62.16V63.156L121.2 65.076V64.524L126.18 66.444V67.44ZM130.128 69.096C129.536 69.096 128.96 69.004 128.4 68.82C127.848 68.636 127.396 68.388 127.044 68.076L127.596 67.128C127.876 67.392 128.24 67.608 128.688 67.776C129.136 67.944 129.616 68.028 130.128 68.028C130.752 68.028 131.236 67.896 131.58 67.632C131.932 67.36 132.108 66.996 132.108 66.54C132.108 66.1 131.94 65.748 131.604 65.484C131.276 65.212 130.752 65.076 130.032 65.076H129.36V64.236L131.856 61.164L132.024 61.644H127.428V60.6H132.972V61.416L130.488 64.476L129.864 64.104H130.26C131.276 64.104 132.036 64.332 132.54 64.788C133.052 65.244 133.308 65.824 133.308 66.528C133.308 67 133.192 67.432 132.96 67.824C132.728 68.216 132.376 68.528 131.904 68.76C131.44 68.984 130.848 69.096 130.128 69.096ZM137.956 69.096C137.212 69.096 136.576 68.932 136.048 68.604C135.52 68.276 135.116 67.804 134.836 67.188C134.564 66.564 134.428 65.804 134.428 64.908C134.428 63.956 134.596 63.152 134.932 62.496C135.268 61.84 135.736 61.344 136.336 61.008C136.936 60.672 137.624 60.504 138.4 60.504C138.8 60.504 139.18 60.544 139.54 60.624C139.908 60.704 140.224 60.828 140.488 60.996L140.032 61.932C139.816 61.78 139.568 61.676 139.288 61.62C139.016 61.564 138.728 61.536 138.424 61.536C137.568 61.536 136.888 61.804 136.384 62.34C135.88 62.868 135.628 63.656 135.628 64.704C135.628 64.872 135.636 65.072 135.652 65.304C135.668 65.536 135.708 65.764 135.772 65.988L135.364 65.58C135.484 65.212 135.672 64.904 135.928 64.656C136.192 64.4 136.504 64.212 136.864 64.092C137.232 63.964 137.628 63.9 138.052 63.9C138.612 63.9 139.108 64.004 139.54 64.212C139.972 64.42 140.312 64.716 140.56 65.1C140.808 65.476 140.932 65.924 140.932 66.444C140.932 66.98 140.8 67.448 140.536 67.848C140.272 68.248 139.916 68.556 139.468 68.772C139.02 68.988 138.516 69.096 137.956 69.096ZM137.908 68.124C138.276 68.124 138.596 68.056 138.868 67.92C139.148 67.784 139.368 67.596 139.528 67.356C139.688 67.108 139.768 66.82 139.768 66.492C139.768 65.996 139.596 65.604 139.252 65.316C138.908 65.02 138.44 64.872 137.848 64.872C137.464 64.872 137.128 64.944 136.84 65.088C136.552 65.232 136.324 65.428 136.156 65.676C135.996 65.916 135.916 66.192 135.916 66.504C135.916 66.792 135.992 67.06 136.144 67.308C136.296 67.548 136.52 67.744 136.816 67.896C137.112 68.048 137.476 68.124 137.908 68.124ZM145.266 69.096C144.61 69.096 144.022 68.928 143.502 68.592C142.99 68.256 142.582 67.768 142.278 67.128C141.982 66.488 141.834 65.712 141.834 64.8C141.834 63.888 141.982 63.112 142.278 62.472C142.582 61.832 142.99 61.344 143.502 61.008C144.022 60.672 144.61 60.504 145.266 60.504C145.914 60.504 146.498 60.672 147.018 61.008C147.538 61.344 147.946 61.832 148.242 62.472C148.538 63.112 148.686 63.888 148.686 64.8C148.686 65.712 148.538 66.488 148.242 67.128C147.946 67.768 147.538 68.256 147.018 68.592C146.498 68.928 145.914 69.096 145.266 69.096ZM145.266 68.028C145.706 68.028 146.09 67.908 146.418 67.668C146.754 67.428 147.014 67.068 147.198 66.588C147.39 66.108 147.486 65.512 147.486 64.8C147.486 64.088 147.39 63.492 147.198 63.012C147.014 62.532 146.754 62.172 146.418 61.932C146.09 61.692 145.706 61.572 145.266 61.572C144.826 61.572 144.438 61.692 144.102 61.932C143.766 62.172 143.502 62.532 143.31 63.012C143.126 63.492 143.034 64.088 143.034 64.8C143.034 65.512 143.126 66.108 143.31 66.588C143.502 67.068 143.766 67.428 144.102 67.668C144.438 67.908 144.826 68.028 145.266 68.028ZM151.781 64.428C151.413 64.428 151.077 64.344 150.773 64.176C150.477 64 150.241 63.764 150.065 63.468C149.897 63.172 149.813 62.84 149.813 62.472C149.813 62.112 149.897 61.784 150.065 61.488C150.241 61.192 150.477 60.96 150.773 60.792C151.077 60.616 151.413 60.528 151.781 60.528C152.149 60.528 152.481 60.616 152.777 60.792C153.081 60.96 153.321 61.192 153.497 61.488C153.673 61.784 153.761 62.112 153.761 62.472C153.761 62.84 153.673 63.172 153.497 63.468C153.321 63.764 153.081 64 152.777 64.176C152.481 64.344 152.149 64.428 151.781 64.428ZM151.793 63.78C152.033 63.78 152.249 63.724 152.441 63.612C152.641 63.492 152.797 63.336 152.909 63.144C153.021 62.944 153.077 62.724 153.077 62.484C153.077 62.228 153.021 62 152.909 61.8C152.797 61.6 152.641 61.444 152.441 61.332C152.249 61.22 152.033 61.164 151.793 61.164C151.545 61.164 151.321 61.22 151.121 61.332C150.921 61.444 150.765 61.6 150.653 61.8C150.541 61.992 150.485 62.22 150.485 62.484C150.485 62.732 150.541 62.956 150.653 63.156C150.765 63.348 150.921 63.5 151.121 63.612C151.321 63.724 151.545 63.78 151.793 63.78Z" fill="black"/>
</g>
<defs>
<clipPath id="clip0_230_14032">
<rect width="144.598" height="85" fill="white" transform="translate(63.7012)"/>
</clipPath>
</defs>
</svg>
