<svg width="272" height="71" viewBox="0 0 272 71" fill="none" xmlns="http://www.w3.org/2000/svg">
<g clip-path="url(#clip0_252_2548)">
<path d="M149.216 8.52998C141 6.9446 131.652 6.70051 123.781 8.7574C115.91 10.8143 109.984 15.4582 110.632 20.2858C111.097 23.7516 114.709 27.1876 112.937 30.52C111.672 32.8989 107.812 34.6296 103.623 35.4752C99.4334 36.3207 94.8954 36.419 90.4423 36.5084L63.4762 37.05C54.8385 37.2235 44.5373 37.9638 40.726 42.283C38.005 45.3666 40.063 49.2827 44.4094 51.7215C48.7559 54.1602 54.9211 55.3351 61.0194 55.8599C84.6304 57.8918 109.395 51.3746 132.207 55.3262C142.757 57.1536 151.956 61.113 162.786 62.3314C175.726 63.7872 189.322 61.0276 199.677 56.4682C210.032 51.9089 217.617 45.7092 224.458 39.423C227.718 36.4279 230.9 33.313 232.05 29.87C232.874 27.4045 232.618 24.8648 231.303 22.4662C229.988 20.0677 227.654 17.8809 224.499 16.0915C221.343 14.3021 217.459 12.9627 213.176 12.1869C208.893 11.4112 204.337 11.2219 199.894 11.6352C191.946 12.3745 181.3 17.2805 173.332 16.4291C169.855 16.0576 166.381 13.7226 163.46 12.6348C159.047 10.9332 154.26 9.55371 149.216 8.52998Z" fill="#EAFEFF"/>
</g>
<path d="M123 51V33.3815C123 30.363 123.847 27.468 125.354 25.3336C126.862 23.1991 128.907 22 131.039 22H171.961C174.093 22 176.138 23.1991 177.646 25.3336C179.153 27.468 180 30.363 180 33.3815V51H123Z" fill="#128999" stroke="#1E3636" stroke-miterlimit="10"/>
<g clip-path="url(#clip1_252_2548)">
<path d="M142.354 22.995V22.9951C142.354 23.69 142.155 24.3678 141.784 24.9428C141.413 25.5175 140.888 25.9626 140.277 26.2246C139.666 26.4865 138.995 26.5545 138.348 26.4209C137.7 26.2873 137.104 25.9573 136.633 25.4697C136.163 24.982 135.841 24.3586 135.71 23.6774C135.58 22.9962 135.647 22.2903 135.904 21.6498C136.16 21.0095 136.593 20.465 137.144 20.0834C137.696 19.702 138.342 19.4997 139.001 19.5L139.001 19.5C139.439 19.5 139.873 19.5895 140.279 19.7637C140.685 19.9379 141.055 20.1938 141.367 20.5175C141.679 20.8413 141.928 21.2267 142.097 21.652C142.267 22.0773 142.355 22.5337 142.354 22.995Z" fill="#9BF9FF" stroke="#1E3636"/>
<path d="M145.5 31.0297V35.1276C144.562 34.9655 143.617 34.8502 142.669 34.7821L142.183 34.7473L142.135 35.2323C141.87 37.9484 141.383 41.861 140.754 45.0883C140.439 46.7053 140.093 48.1293 139.728 49.1405C139.545 49.6494 139.367 50.0252 139.202 50.2646C139.098 50.4156 139.029 50.471 138.999 50.4907C138.968 50.471 138.9 50.4156 138.796 50.2651C138.632 50.0258 138.454 49.6502 138.271 49.1416C137.907 48.1308 137.561 46.7075 137.247 45.0909C136.619 41.8647 136.131 37.9528 135.865 35.235L135.817 34.7513L135.332 34.785C134.383 34.851 133.438 34.9653 132.5 35.1274V31.0297C133.564 30.8664 134.634 30.7525 135.707 30.6883L135.979 30.672L136.113 30.435C136.41 29.9083 136.834 29.4737 137.341 29.1726C137.848 28.8715 138.42 28.7139 139.001 28.7139C139.583 28.7139 140.155 28.8715 140.662 29.1726C141.169 29.4737 141.593 29.9083 141.89 30.435L142.024 30.672L142.295 30.6883C143.368 30.7526 144.437 30.8665 145.5 31.0297Z" fill="#9BF9FF" stroke="#1E3636"/>
</g>
<g clip-path="url(#clip2_252_2548)">
<path d="M168.781 14.8677V14.8679C168.781 15.9308 168.47 16.9691 167.888 17.8515C167.307 18.7338 166.481 19.4202 165.517 19.8251C164.552 20.2299 163.492 20.3354 162.469 20.1286C161.446 19.9217 160.505 19.4115 159.766 18.6613C159.027 17.9111 158.524 16.9545 158.32 15.9121C158.116 14.8698 158.221 13.7895 158.622 12.8083C159.023 11.8271 159.701 10.9898 160.57 10.4013C161.439 9.81298 162.459 9.49961 163.502 9.5H163.502C164.195 9.50004 164.881 9.63854 165.521 9.90776C166.161 10.177 166.743 10.5718 167.234 11.0699C167.724 11.5681 168.114 12.1599 168.38 12.8116C168.645 13.4633 168.782 14.162 168.781 14.8677Z" fill="#64CDC7" stroke="#1E3636"/>
<path d="M173.5 26.4697V32.9692C172.005 32.7057 170.498 32.5204 168.985 32.4141L168.5 32.38L168.452 32.8632C168.054 36.8563 167.322 42.6107 166.377 47.3603C165.904 49.7386 165.382 51.8436 164.829 53.3455C164.551 54.0997 164.276 54.6731 164.012 55.049C163.73 55.4501 163.552 55.5001 163.498 55.5001C163.444 55.5001 163.267 55.4506 162.985 55.0496C162.722 54.6739 162.447 54.1008 162.17 53.347C161.618 51.8458 161.097 49.7417 160.624 47.3642C159.681 42.6162 158.948 36.8628 158.548 32.8674L158.5 32.3855L158.017 32.4184C156.502 32.5214 154.995 32.7052 153.5 32.969V26.4697C155.173 26.2114 156.856 26.0325 158.546 25.9336L158.815 25.9178L158.949 25.6842C159.415 24.8762 160.081 24.2069 160.88 23.7421C161.678 23.2774 162.582 23.0332 163.502 23.0332C164.422 23.0332 165.326 23.2774 166.124 23.7421C166.923 24.2069 167.589 24.8762 168.055 25.6842L168.19 25.9178L168.459 25.9336C170.146 26.0327 171.829 26.2116 173.5 26.4697Z" fill="#64CDC7" stroke="#1E3636"/>
</g>
<path d="M164 69C168.418 69 172 65.4183 172 61C172 56.5817 168.418 53 164 53C159.582 53 156 56.5817 156 61C156 65.4183 159.582 69 164 69Z" fill="#FFC700" stroke="#1E3636" stroke-miterlimit="10"/>
<defs>
<clipPath id="clip0_252_2548">
<rect width="194" height="56" fill="white" transform="translate(39 7)"/>
</clipPath>
<clipPath id="clip1_252_2548">
<rect width="14" height="32" fill="white" transform="translate(132 19)"/>
</clipPath>
<clipPath id="clip2_252_2548">
<rect width="21" height="47" fill="white" transform="translate(153 9)"/>
</clipPath>
</defs>
</svg>
