<svg width="16" height="15" viewBox="0 0 16 15" fill="none" xmlns="http://www.w3.org/2000/svg">
<path d="M7.08768 2.03272C7.44107 1.24535 8.55894 1.24535 8.91232 2.03272L9.9847 4.42206C10.1301 4.74605 10.4365 4.96861 10.7895 5.00679L13.3933 5.28834C14.2513 5.38112 14.5968 6.44428 13.9571 7.02368L12.0161 8.78192C11.7529 9.02033 11.6359 9.38045 11.7087 9.72804L12.2456 12.2914C12.4225 13.1361 11.5181 13.7932 10.7694 13.3639L8.49741 12.0612C8.18933 11.8846 7.81067 11.8846 7.50259 12.0612L5.23061 13.3639C4.4819 13.7932 3.57753 13.1361 3.75444 12.2914L4.29128 9.72804C4.36408 9.38045 4.24707 9.02033 3.98387 8.78192L2.04286 7.02368C1.40322 6.44428 1.74866 5.38112 2.60671 5.28834L5.21048 5.00679C5.56355 4.96861 5.86988 4.74605 6.0153 4.42205L7.08768 2.03272Z" fill="#9BF9FF" stroke="#1E3636" stroke-width="1.5"/>
</svg>
