<svg width="33" height="28" viewBox="0 0 33 28" fill="none" xmlns="http://www.w3.org/2000/svg">
<g clip-path="url(#clip0_331_1013)">
<path d="M8.89586 4.27036V4.27052C8.89566 4.83152 8.7291 5.37986 8.41725 5.8462C8.1054 6.31255 7.66226 6.67594 7.14389 6.89043C6.62551 7.10493 6.05516 7.16089 5.50498 7.05124C4.9548 6.94159 4.44949 6.67125 4.05294 6.27442C3.6564 5.87758 3.38644 5.37207 3.2772 4.8218C3.16796 4.27154 3.22434 3.70124 3.43922 3.18302C3.6541 2.6648 4.01782 2.22194 4.48439 1.91043C4.95097 1.59893 5.49943 1.43278 6.06044 1.43298H6.06059C6.4331 1.43301 6.80195 1.50643 7.14607 1.64905C7.49018 1.79168 7.80283 2.00071 8.06613 2.26421C8.32943 2.52771 8.53823 2.8405 8.6806 3.18473C8.82297 3.52895 8.89612 3.89786 8.89586 4.27036Z" fill="#FDFFFC" stroke="#C3D5D7"/>
<path d="M11.6189 11.0559V14.3122C10.8303 14.1831 10.0361 14.0908 9.2388 14.0356L8.75554 14.0021L8.70679 14.484C8.47746 16.7514 8.0557 20.0167 7.51258 22.7085C7.24031 24.058 6.94172 25.2418 6.62879 26.0796C6.47115 26.5017 6.32016 26.8073 6.18393 26.9985C6.12745 27.0777 6.08534 27.1214 6.05843 27.1448C6.03162 27.1214 5.9897 27.0778 5.93354 26.9989C5.79755 26.8079 5.64683 26.5024 5.48945 26.0805C5.17702 25.2431 4.87888 24.0598 4.60692 22.7108C4.0644 20.0198 3.64264 16.7551 3.41204 14.4863L3.36319 14.0056L2.88114 14.038C2.08341 14.0915 1.2888 14.183 0.5 14.3121V11.0559C1.39954 10.9243 2.30447 10.8322 3.21221 10.7799L3.47968 10.7644L3.61497 10.5332C3.86474 10.1062 4.22191 9.75213 4.65098 9.50605C5.08004 9.25997 5.56605 9.13049 6.06067 9.13049C6.55529 9.13049 7.04129 9.25997 7.47036 9.50605C7.89942 9.75213 8.25659 10.1062 8.50636 10.5332L8.64162 10.7644L8.90905 10.7799C9.81597 10.8323 10.7201 10.9244 11.6189 11.0559Z" fill="#FDFFFC" stroke="#C3D5D7"/>
</g>
<g clip-path="url(#clip1_331_1013)">
<path d="M29.5148 4.2707C29.5145 4.9306 29.3186 5.5756 28.9518 6.12414C28.585 6.67269 28.0637 7.10014 27.454 7.35245C26.8442 7.60475 26.1733 7.67057 25.5262 7.54159C24.879 7.41262 24.2846 7.09463 23.8182 6.62784C23.3517 6.16105 23.0342 5.56643 22.9057 4.91917C22.7772 4.2719 22.8435 3.60107 23.0962 2.9915C23.349 2.38194 23.7768 1.86101 24.3257 1.49459C24.8745 1.12818 25.5196 0.932739 26.1795 0.932984C26.6177 0.933009 27.0516 1.01938 27.4564 1.18715C27.8612 1.35493 28.229 1.60082 28.5387 1.91079C28.8484 2.22075 29.0941 2.58871 29.2615 2.99363C29.429 3.39855 29.5151 3.83251 29.5148 4.2707Z" fill="#1E3636"/>
<path d="M32.2378 10.6266V14.9077C31.2743 14.7267 30.3011 14.6021 29.3232 14.5344C28.8627 19.0867 27.6282 27.6662 26.1771 27.6662C24.7285 27.6662 23.4964 19.0917 23.0335 14.5368C22.0555 14.6025 21.0822 14.7263 20.1189 14.9077V10.6266C21.1735 10.4577 22.236 10.3422 23.3023 10.2807C23.5961 9.77843 24.0163 9.36183 24.5211 9.07232C25.0259 8.78282 25.5977 8.63049 26.1796 8.63049C26.7615 8.63049 27.3332 8.78282 27.838 9.07232C28.3428 9.36183 28.763 9.77843 29.0568 10.2807C30.1223 10.3423 31.184 10.4578 32.2378 10.6266Z" fill="#1E3636"/>
</g>
<defs>
<clipPath id="clip0_331_1013">
<rect width="12.1189" height="26.7332" fill="white" transform="translate(0 0.932983)"/>
</clipPath>
<clipPath id="clip1_331_1013">
<rect width="12.1189" height="26.7332" fill="white" transform="translate(20.1189 0.932983)"/>
</clipPath>
</defs>
</svg>
