<svg width="24" height="25" viewBox="0 0 24 25" fill="none" xmlns="http://www.w3.org/2000/svg">
<g clip-path="url(#clip0_331_1052)">
<path d="M16.1112 9.24561H10.8724C10.7404 9.24561 10.6136 9.29634 10.5181 9.38731C10.4225 9.47828 10.3656 9.6025 10.3592 9.73426L10.3112 10.7134C10.3045 10.8493 10.2443 10.977 10.1436 11.0685C10.0429 11.16 9.91004 11.2078 9.77414 11.2015L9.38552 11.1834C9.25353 11.1773 9.12898 11.1205 9.03774 11.025C8.9465 10.9294 8.8956 10.8023 8.89559 10.6702V9.7594C8.89559 9.69193 8.8823 9.62512 8.85648 9.56278C8.83066 9.50044 8.79281 9.4438 8.7451 9.39609C8.69739 9.34838 8.64075 9.31054 8.57841 9.28472C8.51608 9.25889 8.44926 9.24561 8.38179 9.24561H1.5514C1.41513 9.24561 1.28444 9.29974 1.18809 9.39609C1.09173 9.49245 1.0376 9.62314 1.0376 9.7594V12.4585C1.0376 12.5693 1.07341 12.6772 1.1397 12.7659C1.20599 12.8547 1.29921 12.9197 1.40544 12.9512L9.76478 15.4278C10.1603 15.5404 10.5296 15.7302 10.8514 15.9861C11.1732 16.242 11.4413 16.5591 11.64 16.9191C12.196 17.958 13.0875 18.7779 14.1693 19.2451C15.251 19.7124 16.4591 19.7994 17.5966 19.492C18.7341 19.1846 19.7339 18.5009 20.433 17.5524C21.1321 16.6039 21.4893 15.4465 21.4463 14.269C21.3458 11.4438 18.9382 9.24561 16.1112 9.24561Z" fill="#9BF9FF" stroke="#1E3636" stroke-width="1.3" stroke-miterlimit="10"/>
<path d="M16.2363 16.677C17.4612 16.677 18.4541 15.6841 18.4541 14.4592C18.4541 13.2344 17.4612 12.2415 16.2363 12.2415C15.0115 12.2415 14.0186 13.2344 14.0186 14.4592C14.0186 15.6841 15.0115 16.677 16.2363 16.677Z" fill="white" stroke="#1E3636" stroke-miterlimit="10"/>
<path d="M8 7.39941L7 6.39941" stroke="#1E3636" stroke-width="1.5" stroke-miterlimit="10" stroke-linecap="round"/>
<path d="M12 7.39941L13 6.39941" stroke="#1E3636" stroke-width="1.5" stroke-miterlimit="10" stroke-linecap="round"/>
<path d="M10 7.39941V5.39941" stroke="#1E3636" stroke-width="1.5" stroke-miterlimit="10" stroke-linecap="round"/>
<mask id="path-6-outside-1_331_1052" maskUnits="userSpaceOnUse" x="21.0762" y="12.6506" width="3" height="5" fill="black">
<rect fill="white" x="21.0762" y="12.6506" width="3" height="5"/>
<path d="M21.4497 13.6506H22.4487C22.5849 13.6506 22.7156 13.7048 22.812 13.8011C22.9083 13.8975 22.9625 14.0282 22.9625 14.1644V15.8855C22.9625 15.953 22.9492 16.0198 22.9233 16.0821C22.8975 16.1445 22.8597 16.2011 22.812 16.2488C22.7643 16.2965 22.7076 16.3344 22.6453 16.3602C22.5829 16.386 22.5161 16.3993 22.4487 16.3993H21.0762"/>
</mask>
<path d="M22.9625 14.1644H23.9625H22.9625ZM22.9625 15.8855H21.9625V15.8855L22.9625 15.8855ZM22.4487 16.3993V15.3993V16.3993ZM21.4497 14.6506H22.4487V12.6506H21.4497V14.6506ZM22.4487 14.6506C22.3197 14.6506 22.196 14.5994 22.1049 14.5082L23.5191 13.094C23.2352 12.8101 22.8501 12.6506 22.4487 12.6506V14.6506ZM22.1049 14.5082C22.0137 14.4171 21.9625 14.2934 21.9625 14.1644H23.9625C23.9625 13.7629 23.803 13.3779 23.5191 13.094L22.1049 14.5082ZM21.9625 14.1644V15.8855H23.9625V14.1644H21.9625ZM21.9625 15.8855C21.9625 15.8217 21.975 15.7584 21.9995 15.6995L23.8472 16.4648C23.9233 16.2812 23.9625 16.0843 23.9625 15.8855L21.9625 15.8855ZM21.9995 15.6995C22.0239 15.6405 22.0597 15.5869 22.1049 15.5417L23.5191 16.9559C23.6596 16.8154 23.7711 16.6485 23.8472 16.4648L21.9995 15.6995ZM22.1049 15.5417C22.15 15.4966 22.2036 15.4608 22.2626 15.4363L23.028 17.2841C23.2116 17.208 23.3785 17.0965 23.5191 16.9559L22.1049 15.5417ZM22.2626 15.4363C22.3216 15.4119 22.3848 15.3993 22.4487 15.3993V17.3993C22.6474 17.3993 22.8443 17.3602 23.028 17.2841L22.2626 15.4363ZM22.4487 15.3993H21.0762V17.3993H22.4487V15.3993Z" fill="#1E3636" mask="url(#path-6-outside-1_331_1052)"/>
</g>
<defs>
<clipPath id="clip0_331_1052">
<rect width="24" height="24" fill="white" transform="translate(0 0.399414)"/>
</clipPath>
</defs>
</svg>
