<svg width="24" height="24" viewBox="0 0 24 24" fill="none" xmlns="http://www.w3.org/2000/svg">
<path d="M19.3424 4.00006C19.4712 4.00006 19.5982 4.03091 19.713 4.09009C19.8278 4.14928 19.9272 4.23513 20.0031 4.34065C20.079 4.44617 20.1293 4.56837 20.1498 4.69732C20.1703 4.82626 20.1605 4.95829 20.1211 5.08267L19.9056 5.7643L18.6149 9.84659C18.5394 10.0855 18.3909 10.294 18.1911 10.4419C17.9912 10.5897 17.7501 10.6694 17.5027 10.6694H6.49297C6.24553 10.6694 6.00448 10.5897 5.80458 10.4419C5.60469 10.294 5.45627 10.0855 5.38072 9.84657L4.09009 5.7643L3.87452 5.08267C3.83519 4.95829 3.82538 4.82626 3.84589 4.69732C3.8664 4.56837 3.91665 4.44617 3.99255 4.34065C4.06845 4.23513 4.16785 4.14928 4.28267 4.09009C4.39748 4.03091 4.52445 4.00006 4.65324 4.00006H19.3424Z" fill="#9BF9FF" stroke="#1E3636" stroke-width="1.5" stroke-miterlimit="10"/>
<path d="M9.5043 10.6697H6.75684V19.8518H9.5043V10.6697Z" stroke="#1E3636" stroke-width="1.5" stroke-miterlimit="10"/>
<path d="M4.09176 5.76508H0" stroke="#1E3636" stroke-width="1.5" stroke-miterlimit="10"/>
<path d="M17.4261 10.6697H14.6821V19.8518H17.4261V10.6697Z" stroke="#1E3636" stroke-width="1.5" stroke-miterlimit="10"/>
<path d="M19.9072 5.76508H24" stroke="#1E3636" stroke-width="1.5" stroke-miterlimit="10"/>
</svg>
