<svg width="24" height="24" viewBox="0 0 24 24" fill="none" xmlns="http://www.w3.org/2000/svg">
<path d="M7 6C6.20435 6 5.44129 6.31607 4.87868 6.87868C4.31607 7.44129 4 8.20435 4 9H20C20 8.20435 19.6839 7.44129 19.1213 6.87868C18.5587 6.31607 17.7956 6 17 6H7ZM7 18C6.20435 18 5.44129 17.6839 4.87868 17.1213C4.31607 16.5587 4 15.7956 4 15H20C20 15.7956 19.6839 16.5587 19.1213 17.1213C18.5587 17.6839 17.7956 18 17 18H7ZM3 11C2.73478 11 2.48043 11.1054 2.29289 11.2929C2.10536 11.4804 2 11.7348 2 12C2 12.2652 2.10536 12.5196 2.29289 12.7071C2.48043 12.8946 2.73478 13 3 13H21C21.2652 13 21.5196 12.8946 21.7071 12.7071C21.8946 12.5196 22 12.2652 22 12C22 11.7348 21.8946 11.4804 21.7071 11.2929C21.5196 11.1054 21.2652 11 21 11H3Z" fill="#1E3636"/>
</svg>
