<svg width="33" height="28" viewBox="0 0 33 28" fill="none" xmlns="http://www.w3.org/2000/svg">
<g clip-path="url(#clip0_331_988)">
<path d="M9.39586 3.80421C9.39562 4.4641 9.1997 5.10911 8.83288 5.65765C8.46606 6.2062 7.94481 6.63365 7.33506 6.88595C6.7253 7.13826 6.05442 7.20408 5.40725 7.0751C4.76009 6.94612 4.1657 6.62813 3.69926 6.16135C3.23282 5.69456 2.91527 5.09994 2.78677 4.45267C2.65827 3.80541 2.72459 3.13458 2.97735 2.52501C3.23011 1.91544 3.65795 1.39452 4.20676 1.0281C4.75558 0.661689 5.40073 0.466247 6.06062 0.466492C6.49881 0.466517 6.93271 0.552885 7.33751 0.72066C7.74231 0.888436 8.11008 1.13433 8.41981 1.44429C8.72955 1.75426 8.97517 2.12221 9.14264 2.52714C9.31012 2.93206 9.39617 3.36602 9.39586 3.80421Z" fill="#FFC700"/>
<path d="M12.1189 10.1602V14.4412C11.1554 14.2603 10.1822 14.1356 9.20425 14.0679C8.7438 18.6202 7.50925 27.1997 6.05819 27.1997C4.6096 27.1997 3.37755 18.6252 2.9146 14.0704C1.93656 14.136 0.963303 14.2598 0 14.4412V10.1602C1.05462 9.99119 2.11711 9.87572 3.1834 9.8142C3.47724 9.31193 3.89744 8.89534 4.40222 8.60583C4.907 8.31633 5.47876 8.164 6.06067 8.164C6.64257 8.164 7.21434 8.31633 7.71911 8.60583C8.22389 8.89534 8.64409 9.31193 8.93793 9.8142C10.0034 9.87586 11.0651 9.99132 12.1189 10.1602Z" fill="#FFC700"/>
</g>
<g clip-path="url(#clip1_331_988)">
<path d="M29.5148 3.80421C29.5145 4.4641 29.3186 5.10911 28.9518 5.65765C28.585 6.2062 28.0637 6.63365 27.454 6.88595C26.8442 7.13826 26.1733 7.20408 25.5262 7.0751C24.879 6.94612 24.2846 6.62813 23.8182 6.16135C23.3517 5.69456 23.0342 5.09994 22.9057 4.45267C22.7772 3.80541 22.8435 3.13458 23.0962 2.52501C23.349 1.91544 23.7768 1.39452 24.3257 1.0281C24.8745 0.661689 25.5196 0.466247 26.1795 0.466492C26.6177 0.466517 27.0516 0.552885 27.4564 0.72066C27.8612 0.888436 28.229 1.13433 28.5387 1.44429C28.8484 1.75426 29.0941 2.12221 29.2615 2.52714C29.429 2.93206 29.5151 3.36602 29.5148 3.80421Z" fill="#1E3636"/>
<path d="M32.2378 10.1602V14.4412C31.2743 14.2603 30.3011 14.1356 29.3232 14.0679C28.8627 18.6202 27.6282 27.1997 26.1771 27.1997C24.7285 27.1997 23.4964 18.6252 23.0335 14.0704C22.0555 14.136 21.0822 14.2598 20.1189 14.4412V10.1602C21.1735 9.99119 22.236 9.87572 23.3023 9.8142C23.5961 9.31193 24.0163 8.89534 24.5211 8.60583C25.0259 8.31633 25.5977 8.164 26.1796 8.164C26.7615 8.164 27.3332 8.31633 27.838 8.60583C28.3428 8.89534 28.763 9.31193 29.0568 9.8142C30.1223 9.87586 31.184 9.99132 32.2378 10.1602Z" fill="#1E3636"/>
</g>
<defs>
<clipPath id="clip0_331_988">
<rect width="12.1189" height="26.7332" fill="white" transform="translate(0 0.466492)"/>
</clipPath>
<clipPath id="clip1_331_988">
<rect width="12.1189" height="26.7332" fill="white" transform="translate(20.1189 0.466492)"/>
</clipPath>
</defs>
</svg>
