<svg width="33" height="28" viewBox="0 0 33 28" fill="none" xmlns="http://www.w3.org/2000/svg">
<g clip-path="url(#clip0_331_1027)">
<path d="M9.39586 4.00398C9.39562 4.66387 9.1997 5.30888 8.83288 5.85742C8.46606 6.40597 7.94481 6.83342 7.33506 7.08572C6.7253 7.33803 6.05442 7.40385 5.40725 7.27487C4.76009 7.14589 4.1657 6.8279 3.69926 6.36111C3.23282 5.89433 2.91527 5.2997 2.78677 4.65244C2.65827 4.00518 2.72459 3.33435 2.97735 2.72478C3.23011 2.11521 3.65795 1.59428 4.20676 1.22787C4.75558 0.861457 5.40073 0.666015 6.06062 0.66626C6.49881 0.666285 6.93271 0.752653 7.33751 0.920428C7.74231 1.0882 8.11008 1.3341 8.41981 1.64406C8.72955 1.95403 8.97517 2.32198 9.14264 2.72691C9.31012 3.13183 9.39617 3.56579 9.39586 4.00398Z" fill="#172ADB"/>
<path d="M12.1189 10.3599V14.641C11.1554 14.46 10.1822 14.3354 9.20425 14.2676C8.7438 18.82 7.50925 27.3995 6.05819 27.3995C4.6096 27.3995 3.37755 18.825 2.9146 14.2701C1.93656 14.3357 0.963303 14.4596 0 14.641V10.3599C1.05462 10.191 2.11711 10.0755 3.1834 10.014C3.47724 9.5117 3.89744 9.0951 4.40222 8.8056C4.907 8.51609 5.47876 8.36377 6.06067 8.36377C6.64257 8.36377 7.21434 8.51609 7.71911 8.8056C8.22389 9.0951 8.64409 9.5117 8.93793 10.014C10.0034 10.0756 11.0651 10.1911 12.1189 10.3599Z" fill="#172ADB"/>
</g>
<g clip-path="url(#clip1_331_1027)">
<path d="M29.5148 4.00398C29.5145 4.66387 29.3186 5.30888 28.9518 5.85742C28.585 6.40597 28.0637 6.83342 27.454 7.08572C26.8442 7.33803 26.1733 7.40385 25.5262 7.27487C24.879 7.14589 24.2846 6.8279 23.8182 6.36111C23.3517 5.89433 23.0342 5.2997 22.9057 4.65244C22.7772 4.00518 22.8435 3.33435 23.0962 2.72478C23.349 2.11521 23.7768 1.59428 24.3257 1.22787C24.8745 0.861457 25.5196 0.666015 26.1795 0.66626C26.6177 0.666285 27.0516 0.752653 27.4564 0.920428C27.8612 1.0882 28.229 1.3341 28.5387 1.64406C28.8484 1.95403 29.0941 2.32198 29.2615 2.72691C29.429 3.13183 29.5151 3.56579 29.5148 4.00398Z" fill="#1E3636"/>
<path d="M32.2378 10.3599V14.641C31.2743 14.46 30.3011 14.3354 29.3232 14.2676C28.8627 18.82 27.6282 27.3995 26.1771 27.3995C24.7285 27.3995 23.4964 18.825 23.0335 14.2701C22.0555 14.3357 21.0822 14.4596 20.1189 14.641V10.3599C21.1735 10.191 22.236 10.0755 23.3023 10.014C23.5961 9.5117 24.0163 9.0951 24.5211 8.8056C25.0259 8.51609 25.5977 8.36377 26.1796 8.36377C26.7615 8.36377 27.3332 8.51609 27.838 8.8056C28.3428 9.0951 28.763 9.5117 29.0568 10.014C30.1223 10.0756 31.184 10.1911 32.2378 10.3599Z" fill="#1E3636"/>
</g>
<defs>
<clipPath id="clip0_331_1027">
<rect width="12.1189" height="26.7332" fill="white" transform="translate(0 0.66626)"/>
</clipPath>
<clipPath id="clip1_331_1027">
<rect width="12.1189" height="26.7332" fill="white" transform="translate(20.1189 0.66626)"/>
</clipPath>
</defs>
</svg>
